<?xml version="1.0" encoding="UTF-8" standalone="no"?><!DOCTYPE svg PUBLIC "-//W3C//DTD SVG 1.1//EN" "http://www.w3.org/Graphics/SVG/1.1/DTD/svg11.dtd"><svg width="100%" height="100%" viewBox="0 0 706 577" version="1.1" xmlns="http://www.w3.org/2000/svg" xmlns:xlink="http://www.w3.org/1999/xlink" xml:space="preserve" xmlns:serif="http://www.serif.com/" style="fill-rule:evenodd;clip-rule:evenodd;stroke-linejoin:round;stroke-miterlimit:2;"><rect id="Artboard1" x="0" y="0" width="705.298" height="576.03" style="fill:none;"/><g><g><path d="M337.29,225.798c-0,-0 -15.067,7.727 -23.937,14.488c-0,-0 -5.774,3.725 0.281,6.761c0,-0 13.377,8.692 36.61,15.178c-0,-0 -12.25,-20.697 -12.954,-36.427Z" style="fill:#e04832;"/><path d="M406.426,257.671c0,0 -24.36,22.353 -47.03,27.182c0,0 -9.997,-11.59 -14.362,-32.425c0,-0 10.138,16.42 46.748,8.003c0,-0 11.265,-4.14 14.644,-2.76Z" style="fill:#ff740e;"/><path d="M406.144,200.895c0,0 28.584,1.656 51.113,13.936c0,0 5.21,2.208 0.141,4.83c0,-0 -28.724,20.145 -37.736,17.247c-0,0 -10.701,-19.317 -13.518,-36.013Z" style="fill:#eea12b;"/><path d="M407.552,207.309c0,-0 1.831,23.318 -0.985,42.083c-0,0 -9.153,29.114 -9.857,43.74l-0.14,22.215c-0,-0 -0.564,6.347 4.505,0.966c0,-0 20.84,-20.835 25.205,-41.256c-0,-0 2.534,-11.729 -2.253,-31.874c-0,0 -5.914,-16.905 -16.475,-35.874Z" style="fill:#3eb3a1;"/><path d="M345.738,220.119c0,-0 16.615,-15.592 59.28,-6.485c-0,-0 7.04,2.897 5.914,-3.036c-0,0 -3.098,-11.314 -9.012,-18.627c0,-0 -3.043,-3.838 -10.42,-0.69c-18.218,7.774 -30.719,16.011 -45.762,28.838Z" style="fill:#ff740e;"/><path d="M346.583,254.89c0,-0 0.986,-33.254 10.983,-60.022c-0,0 8.73,-24.836 8.871,-34.771c-0,0 1.971,-6.761 -4.365,-0.965c-0,-0 -13.658,8.968 -28.021,32.839c0,-0 -7.885,15.04 -3.942,29.389c-0,0 0.985,10.741 16.474,33.53Z" style="fill:#3eb3a1;"/></g><path d="M258.066,210.659c0,0 5.543,32.757 16.205,67.4c0,-0 15.091,48.338 16.675,83.694c-0,0 1.372,21.164 -8.908,4.603c0,-0 -58.67,-69.866 -65.236,-145.864c0,-0 -1.329,-20.814 1.558,-37.148c-0,0 23.752,-10.615 39.706,27.315Z" style="fill:#eea12b;"/><path d="M526.821,268.196c0,0 -39.449,77.512 -92.897,115.242c-0,0 -37.946,-12.913 -71.041,-52.528c0,-0 43.369,23.145 129.036,-39.117c-0,0 24.735,-22.495 34.902,-23.597Z" style="fill:#ff740e;"/><path d="M202.798,339.245c0,0 44.841,44.206 105.809,57.784c-0,-0 12.623,4.364 11.477,-9.124c0,0 5.858,-86.679 -13.826,-96.013c0,0 -60.442,19.677 -103.46,47.353Z" style="fill:#eea12b;"/><path d="M262.583,104.65c0,0 53.618,3.164 95.285,15.797c0,-0 62.995,30.846 95.986,37.186l50.428,7.446c0,-0 14.228,3.357 3.75,-10.286c0,-0 -40.149,-55.677 -85.044,-72.482c0,0 -25.775,-9.716 -73.202,-4.91c0,-0 -40.454,8.492 -87.203,27.249Z" style="fill:#3eb3a1;"/><path d="M493.142,402.044c0,0 44.86,-60.569 -17.73,-174.49c-0,0 -15.375,-17.618 6.872,-19.43c-0,0 43.084,-0.748 73.649,9.92c-0,-0 15.998,5.426 9.736,29.121c-15.467,58.52 -36.578,101.135 -72.527,154.879Z" style="fill:#ff740e;"/><path d="M322.396,162.716c-0,-0 -15.29,-46.906 3.545,-96.879c-0,-0 15.629,-45.643 10.541,-59.452c0,-0 2.884,-11.887 -15.311,4.469c0,-0 -41.192,30.425 -76.42,82.218c-0,0 -18.258,31.089 3.12,45.533c0,-0 9.351,13.419 74.525,24.111Z" style="fill:#3eb3a1;"/><ellipse cx="205.164" cy="135.156" rx="15.809" ry="15.491" style="fill:#eea12b;"/><ellipse cx="564.757" cy="167.755" rx="28.482" ry="27.91" style="fill:#3eb3a1;"/><ellipse cx="361.991" cy="414.57" rx="25.313" ry="24.805" style="fill:#ff740e;"/><g><path d="M24.874,528.825c-3.232,-1.08 -6.17,-2.177 -8.814,-3.293c-2.644,-1.115 -4.921,-2.465 -6.83,-4.048c-1.91,-1.583 -3.397,-3.473 -4.462,-5.668c-1.065,-2.195 -1.597,-4.876 -1.597,-8.043c-0,-6.117 2.405,-11.011 7.216,-14.682c4.81,-3.67 11.549,-5.505 20.216,-5.505c3.158,-0 6.096,0.215 8.813,0.647c2.718,0.432 5.05,1.098 6.996,1.997c1.946,0.9 3.47,2.052 4.572,3.455c1.102,1.404 1.653,3.041 1.653,4.912c-0,1.871 -0.441,3.473 -1.323,4.804c-0.881,1.332 -1.946,2.465 -3.194,3.401c-1.616,-1.008 -3.783,-1.889 -6.5,-2.645c-2.718,-0.756 -5.692,-1.134 -8.924,-1.134c-3.305,0 -5.729,0.45 -7.271,1.35c-1.543,0.899 -2.314,2.033 -2.314,3.4c0,1.08 0.478,1.962 1.432,2.645c0.955,0.684 2.387,1.314 4.297,1.89l5.839,1.835c6.904,2.159 12.21,4.912 15.919,8.259c3.709,3.346 5.564,7.898 5.564,13.656c-0,6.118 -2.461,11.066 -7.381,14.844c-4.921,3.779 -12.156,5.668 -21.704,5.668c-3.378,-0 -6.518,-0.27 -9.419,-0.81c-2.901,-0.54 -5.435,-1.331 -7.602,-2.375c-2.167,-1.043 -3.856,-2.339 -5.068,-3.886c-1.211,-1.548 -1.817,-3.329 -1.817,-5.344c-0,-2.087 0.624,-3.869 1.872,-5.344c1.249,-1.475 2.608,-2.609 4.077,-3.401c2.056,1.584 4.572,2.951 7.546,4.103c2.975,1.151 6.225,1.727 9.75,1.727c3.599,0 6.133,-0.54 7.602,-1.619c1.469,-1.08 2.203,-2.339 2.203,-3.779c0,-1.439 -0.587,-2.537 -1.762,-3.292c-1.176,-0.756 -2.828,-1.494 -4.958,-2.214l-4.627,-1.511Z" style="fill:#3eb3a1;fill-rule:nonzero;"/><path d="M89.433,500.756c4.407,0 8.501,0.558 12.284,1.674c3.782,1.115 7.032,2.824 9.75,5.128c2.717,2.303 4.847,5.199 6.39,8.69c1.542,3.491 2.313,7.647 2.313,12.469c0,4.606 -0.661,8.637 -1.983,12.091c-1.322,3.455 -3.195,6.352 -5.618,8.691c-2.424,2.339 -5.344,4.084 -8.759,5.236c-3.415,1.151 -7.216,1.727 -11.402,1.727c-3.159,0 -6.096,-0.468 -8.814,-1.403l0,17.92c-0.734,0.216 -1.91,0.45 -3.525,0.702c-1.616,0.252 -3.269,0.378 -4.958,0.378c-1.616,-0 -3.066,-0.108 -4.352,-0.324c-1.285,-0.216 -2.368,-0.648 -3.25,-1.295c-0.881,-0.648 -1.542,-1.53 -1.983,-2.645c-0.44,-1.116 -0.661,-2.573 -0.661,-4.373l0,-51.819c0,-1.943 0.423,-3.526 1.267,-4.75c0.845,-1.224 2.002,-2.339 3.471,-3.347c2.276,-1.439 5.104,-2.591 8.483,-3.454c3.378,-0.864 7.161,-1.296 11.347,-1.296Zm0.22,41.24c7.565,-0 11.348,-4.426 11.348,-13.279c-0,-4.606 -0.937,-8.025 -2.81,-10.256c-1.872,-2.231 -4.572,-3.346 -8.097,-3.346c-1.395,-0 -2.644,0.161 -3.746,0.485c-1.101,0.324 -2.056,0.702 -2.864,1.134l-0,23.75c0.881,0.432 1.836,0.792 2.864,1.08c1.029,0.288 2.13,0.432 3.305,0.432Z" style="fill:#3eb3a1;fill-rule:nonzero;"/><path d="M148.043,554.735c-0.734,0.216 -1.891,0.432 -3.47,0.647c-1.579,0.216 -3.214,0.324 -4.903,0.324c-1.616,0 -3.066,-0.108 -4.352,-0.324c-1.285,-0.215 -2.368,-0.647 -3.25,-1.295c-0.881,-0.648 -1.56,-1.529 -2.038,-2.645c-0.477,-1.116 -0.716,-2.573 -0.716,-4.372l0,-32.387c0,-1.656 0.312,-3.077 0.937,-4.265c0.624,-1.187 1.524,-2.249 2.699,-3.184c1.175,-0.936 2.626,-1.782 4.352,-2.537c1.725,-0.756 3.58,-1.422 5.563,-1.998c1.983,-0.575 4.04,-1.025 6.17,-1.349c2.129,-0.324 4.259,-0.486 6.389,-0.486c3.526,0 6.317,0.666 8.373,1.997c2.057,1.332 3.085,3.509 3.085,6.532c-0,1.007 -0.147,1.997 -0.441,2.969c-0.294,0.971 -0.661,1.853 -1.101,2.645c-1.543,-0 -3.122,0.072 -4.738,0.215c-1.616,0.144 -3.195,0.36 -4.737,0.648c-1.542,0.288 -2.993,0.594 -4.352,0.918c-1.358,0.324 -2.515,0.702 -3.47,1.133l-0,36.814Z" style="fill:#3eb3a1;fill-rule:nonzero;"/><path d="M174.153,487.801c0,-2.734 0.937,-5.038 2.809,-6.909c1.873,-1.871 4.352,-2.807 7.437,-2.807c3.085,0 5.563,0.936 7.436,2.807c1.873,1.871 2.81,4.175 2.81,6.909c-0,2.735 -0.937,5.038 -2.81,6.91c-1.873,1.871 -4.351,2.807 -7.436,2.807c-3.085,-0 -5.564,-0.936 -7.437,-2.807c-1.872,-1.872 -2.809,-4.175 -2.809,-6.91Zm19.61,66.934c-0.808,0.144 -2.001,0.342 -3.58,0.593c-1.579,0.252 -3.177,0.378 -4.793,0.378c-1.615,0 -3.066,-0.108 -4.351,-0.324c-1.286,-0.215 -2.369,-0.647 -3.25,-1.295c-0.882,-0.648 -1.561,-1.529 -2.038,-2.645c-0.478,-1.116 -0.717,-2.573 -0.717,-4.372l0,-43.939c0.808,-0.144 2.002,-0.342 3.581,-0.593c1.579,-0.252 3.176,-0.378 4.792,-0.378c1.616,-0 3.067,0.108 4.352,0.324c1.285,0.215 2.369,0.647 3.25,1.295c0.881,0.648 1.561,1.529 2.038,2.645c0.477,1.116 0.716,2.573 0.716,4.372l0,43.939Z" style="fill:#3eb3a1;fill-rule:nonzero;"/><path d="M239.594,521.592c-0,-2.231 -0.643,-3.869 -1.928,-4.912c-1.286,-1.044 -3.03,-1.565 -5.233,-1.565c-1.469,-0 -2.92,0.179 -4.352,0.539c-1.432,0.36 -2.663,0.9 -3.691,1.62l0,37.461c-0.734,0.216 -1.891,0.432 -3.47,0.647c-1.579,0.216 -3.213,0.324 -4.903,0.324c-1.615,0 -3.066,-0.108 -4.351,-0.324c-1.286,-0.215 -2.369,-0.647 -3.25,-1.295c-0.882,-0.648 -1.561,-1.529 -2.038,-2.645c-0.478,-1.116 -0.717,-2.573 -0.717,-4.372l0,-32.387c0,-1.944 0.423,-3.527 1.267,-4.75c0.845,-1.224 2.002,-2.339 3.471,-3.347c2.497,-1.727 5.637,-3.131 9.419,-4.21c3.783,-1.08 7.987,-1.62 12.615,-1.62c8.299,0 14.689,1.782 19.169,5.344c4.48,3.563 6.72,8.511 6.72,14.844l0,33.791c-0.734,0.216 -1.891,0.432 -3.47,0.647c-1.579,0.216 -3.213,0.324 -4.903,0.324c-1.615,0 -3.066,-0.108 -4.351,-0.324c-1.286,-0.215 -2.369,-0.647 -3.25,-1.295c-0.882,-0.648 -1.561,-1.529 -2.038,-2.645c-0.478,-1.116 -0.716,-2.573 -0.716,-4.372l-0,-25.478Z" style="fill:#3eb3a1;fill-rule:nonzero;"/><path d="M288.619,536.814c-0,1.871 0.606,3.203 1.818,3.994c1.211,0.792 2.919,1.188 5.122,1.188c1.102,-0 2.241,-0.09 3.416,-0.27c1.175,-0.18 2.203,-0.414 3.084,-0.702c0.661,0.792 1.231,1.673 1.708,2.645c0.477,0.972 0.716,2.141 0.716,3.509c0,2.735 -1.046,4.966 -3.14,6.693c-2.093,1.727 -5.784,2.591 -11.072,2.591c-6.463,0 -11.439,-1.439 -14.928,-4.318c-3.488,-2.879 -5.233,-7.557 -5.233,-14.035l0,-46.205c0.808,-0.216 1.965,-0.45 3.471,-0.702c1.505,-0.252 3.103,-0.378 4.792,-0.378c3.232,0 5.747,0.558 7.547,1.674c1.799,1.115 2.699,3.472 2.699,7.071l-0,6.909l14.432,-0c0.441,0.792 0.863,1.781 1.267,2.969c0.404,1.187 0.606,2.501 0.606,3.94c-0,2.519 -0.569,4.336 -1.708,5.452c-1.138,1.116 -2.662,1.673 -4.572,1.673l-10.025,0l-0,16.302Z" style="fill:#3eb3a1;fill-rule:nonzero;"/><path d="M349.432,502.592c-5.655,-0 -9.989,1.691 -13,5.073c-3.011,3.383 -4.517,8.169 -4.517,14.359c0,6.261 1.671,11.083 5.013,14.466c3.342,3.383 7.84,5.074 13.496,5.074c3.011,-0 5.563,-0.396 7.656,-1.188c2.094,-0.791 4.095,-1.691 6.005,-2.698c1.248,1.007 2.221,2.213 2.919,3.616c0.698,1.403 1.047,3.041 1.047,4.912c-0,2.951 -1.671,5.452 -5.013,7.503c-3.342,2.051 -8.428,3.077 -15.258,3.077c-4.921,-0 -9.548,-0.684 -13.882,-2.051c-4.333,-1.368 -8.115,-3.473 -11.347,-6.316c-3.232,-2.843 -5.784,-6.441 -7.657,-10.795c-1.873,-4.355 -2.809,-9.555 -2.809,-15.6c-0,-5.614 0.9,-10.562 2.699,-14.844c1.799,-4.283 4.26,-7.899 7.381,-10.85c3.122,-2.951 6.776,-5.182 10.962,-6.693c4.187,-1.512 8.667,-2.267 13.441,-2.267c6.757,-0 11.99,1.079 15.699,3.238c3.709,2.159 5.563,4.93 5.563,8.313c0,1.871 -0.477,3.491 -1.432,4.858c-0.955,1.367 -2.056,2.447 -3.305,3.239c-1.909,-1.224 -3.948,-2.267 -6.114,-3.131c-2.167,-0.864 -4.682,-1.295 -7.547,-1.295Z" style="fill:#ff740e;fill-rule:nonzero;"/><path d="M399.779,543.183c1.249,0 2.626,-0.126 4.132,-0.378c1.505,-0.251 2.626,-0.593 3.36,-1.025l-0,-8.637l-7.932,0.648c-2.057,0.144 -3.746,0.576 -5.068,1.296c-1.322,0.719 -1.983,1.799 -1.983,3.238c-0,1.44 0.569,2.609 1.708,3.509c1.138,0.899 3.066,1.349 5.783,1.349Zm-0.881,-42.427c3.966,0 7.583,0.396 10.852,1.188c3.268,0.791 6.059,1.997 8.373,3.616c2.313,1.62 4.094,3.671 5.343,6.154c1.248,2.483 1.873,5.416 1.873,8.798l-0,24.183c-0,1.871 -0.533,3.4 -1.598,4.588c-1.065,1.187 -2.332,2.213 -3.801,3.077c-4.774,2.807 -11.494,4.21 -20.161,4.21c-3.892,-0 -7.399,-0.36 -10.521,-1.08c-3.121,-0.719 -5.802,-1.799 -8.042,-3.238c-2.24,-1.44 -3.966,-3.275 -5.178,-5.506c-1.212,-2.231 -1.818,-4.822 -1.818,-7.773c0,-4.966 1.506,-8.781 4.517,-11.443c3.011,-2.663 7.675,-4.319 13.992,-4.966l14.432,-1.512l-0,-0.756c-0,-2.087 -0.937,-3.58 -2.81,-4.48c-1.872,-0.899 -4.572,-1.349 -8.097,-1.349c-2.791,-0 -5.508,0.288 -8.152,0.863c-2.645,0.576 -5.032,1.296 -7.161,2.16c-0.955,-0.648 -1.763,-1.638 -2.424,-2.969c-0.661,-1.332 -0.992,-2.717 -0.992,-4.157c0,-1.871 0.459,-3.364 1.377,-4.48c0.918,-1.115 2.332,-2.069 4.242,-2.861c2.13,-0.791 4.645,-1.367 7.547,-1.727c2.901,-0.36 5.636,-0.54 8.207,-0.54Z" style="fill:#ff740e;fill-rule:nonzero;"/><path d="M462.466,500.756c3.011,0 5.967,0.414 8.868,1.242c2.901,0.827 5.417,2.069 7.547,3.724c2.203,-1.439 4.682,-2.627 7.436,-3.562c2.755,-0.936 6.078,-1.404 9.971,-1.404c2.791,0 5.526,0.36 8.207,1.08c2.681,0.72 5.068,1.853 7.161,3.4c2.093,1.548 3.764,3.599 5.013,6.154c1.248,2.555 1.873,5.668 1.873,9.338l-0,34.007c-0.735,0.216 -1.891,0.432 -3.471,0.647c-1.579,0.216 -3.213,0.324 -4.902,0.324c-1.616,0 -3.066,-0.108 -4.352,-0.324c-1.285,-0.215 -2.368,-0.647 -3.25,-1.295c-0.881,-0.648 -1.56,-1.529 -2.038,-2.645c-0.477,-1.116 -0.716,-2.573 -0.716,-4.372l0,-25.802c0,-2.159 -0.624,-3.724 -1.873,-4.696c-1.248,-0.972 -2.938,-1.457 -5.068,-1.457c-1.028,-0 -2.13,0.233 -3.305,0.701c-1.175,0.468 -2.056,0.954 -2.644,1.458c0.074,0.288 0.11,0.557 0.11,0.809l0,36.652c-0.807,0.216 -2.001,0.432 -3.58,0.647c-1.579,0.216 -3.177,0.324 -4.792,0.324c-1.616,0 -3.067,-0.108 -4.352,-0.324c-1.285,-0.215 -2.369,-0.647 -3.25,-1.295c-0.881,-0.648 -1.561,-1.529 -2.038,-2.645c-0.478,-1.116 -0.716,-2.573 -0.716,-4.372l-0,-25.802c-0,-2.159 -0.68,-3.724 -2.038,-4.696c-1.359,-0.972 -2.993,-1.457 -4.903,-1.457c-1.322,-0 -2.46,0.197 -3.415,0.593c-0.955,0.396 -1.763,0.774 -2.424,1.134l0,37.893c-0.734,0.216 -1.891,0.432 -3.47,0.647c-1.579,0.216 -3.214,0.324 -4.903,0.324c-1.616,0 -3.066,-0.108 -4.351,-0.324c-1.286,-0.215 -2.369,-0.647 -3.25,-1.295c-0.882,-0.648 -1.561,-1.529 -2.039,-2.645c-0.477,-1.116 -0.716,-2.573 -0.716,-4.372l0,-32.603c0,-1.943 0.423,-3.491 1.267,-4.642c0.845,-1.152 2.002,-2.231 3.471,-3.239c2.497,-1.727 5.6,-3.131 9.309,-4.21c3.709,-1.08 7.583,-1.62 11.623,-1.62Z" style="fill:#ff740e;fill-rule:nonzero;"/><path d="M554.567,500.756c4.407,0 8.501,0.558 12.284,1.674c3.782,1.115 7.032,2.824 9.75,5.128c2.717,2.303 4.847,5.199 6.39,8.69c1.542,3.491 2.313,7.647 2.313,12.469c0,4.606 -0.661,8.637 -1.983,12.091c-1.322,3.455 -3.195,6.352 -5.618,8.691c-2.424,2.339 -5.344,4.084 -8.759,5.236c-3.415,1.151 -7.216,1.727 -11.402,1.727c-3.159,0 -6.096,-0.468 -8.814,-1.403l0,17.92c-0.734,0.216 -1.909,0.45 -3.525,0.702c-1.616,0.252 -3.269,0.378 -4.958,0.378c-1.616,-0 -3.066,-0.108 -4.352,-0.324c-1.285,-0.216 -2.368,-0.648 -3.25,-1.295c-0.881,-0.648 -1.542,-1.53 -1.983,-2.645c-0.44,-1.116 -0.661,-2.573 -0.661,-4.373l0,-51.819c0,-1.943 0.423,-3.526 1.267,-4.75c0.845,-1.224 2.002,-2.339 3.471,-3.347c2.276,-1.439 5.104,-2.591 8.483,-3.454c3.378,-0.864 7.161,-1.296 11.347,-1.296Zm0.22,41.24c7.565,-0 11.348,-4.426 11.348,-13.279c-0,-4.606 -0.937,-8.025 -2.809,-10.256c-1.873,-2.231 -4.572,-3.346 -8.098,-3.346c-1.395,-0 -2.644,0.161 -3.746,0.485c-1.101,0.324 -2.056,0.702 -2.864,1.134l-0,23.75c0.881,0.432 1.836,0.792 2.864,1.08c1.029,0.288 2.13,0.432 3.305,0.432Z" style="fill:#ff740e;fill-rule:nonzero;"/><path d="M594.448,503.131c0.735,-0.216 1.892,-0.432 3.471,-0.647c1.579,-0.216 3.213,-0.324 4.902,-0.324c1.616,-0 3.067,0.108 4.352,0.324c1.285,0.215 2.368,0.647 3.25,1.295c0.881,0.648 1.561,1.529 2.038,2.645c0.477,1.116 0.716,2.573 0.716,4.372l0,23.211c0,2.951 0.735,5.056 2.203,6.315c1.469,1.26 3.599,1.89 6.39,1.89c1.69,-0 3.067,-0.144 4.132,-0.432c1.065,-0.288 1.891,-0.576 2.478,-0.864l0,-37.785c0.735,-0.216 1.892,-0.432 3.471,-0.647c1.579,-0.216 3.213,-0.324 4.902,-0.324c1.616,-0 3.067,0.108 4.352,0.324c1.285,0.215 2.369,0.647 3.25,1.295c0.881,0.648 1.561,1.529 2.038,2.645c0.477,1.116 0.716,2.573 0.716,4.372l0,32.819c0,3.599 -1.542,6.298 -4.627,8.097c-2.571,1.583 -5.637,2.789 -9.199,3.616c-3.562,0.828 -7.436,1.242 -11.623,1.242c-3.966,-0 -7.62,-0.432 -10.962,-1.296c-3.342,-0.863 -6.224,-2.195 -8.648,-3.994c-2.424,-1.799 -4.297,-4.12 -5.619,-6.963c-1.322,-2.843 -1.983,-6.28 -1.983,-10.31l0,-30.876Z" style="fill:#ff740e;fill-rule:nonzero;"/><path d="M703.736,539.189c0,5.47 -2.093,9.752 -6.28,12.847c-4.186,3.095 -10.355,4.642 -18.508,4.642c-3.085,-0 -5.949,-0.216 -8.593,-0.648c-2.644,-0.432 -4.903,-1.097 -6.776,-1.997c-1.872,-0.9 -3.341,-2.033 -4.406,-3.401c-1.065,-1.367 -1.598,-2.986 -1.598,-4.858c0,-1.727 0.367,-3.184 1.102,-4.372c0.734,-1.188 1.616,-2.177 2.644,-2.969c2.13,1.152 4.572,2.177 7.326,3.077c2.754,0.9 5.931,1.349 9.53,1.349c2.277,0 4.021,-0.323 5.233,-0.971c1.212,-0.648 1.818,-1.512 1.818,-2.591c-0,-1.008 -0.441,-1.799 -1.322,-2.375c-0.882,-0.576 -2.351,-1.044 -4.407,-1.404l-3.305,-0.647c-6.39,-1.224 -11.146,-3.149 -14.267,-5.776c-3.122,-2.627 -4.682,-6.388 -4.682,-11.282c-0,-2.663 0.587,-5.074 1.762,-7.233c1.176,-2.159 2.828,-3.958 4.958,-5.398c2.13,-1.439 4.682,-2.555 7.657,-3.346c2.974,-0.792 6.261,-1.188 9.86,-1.188c2.717,0 5.27,0.198 7.657,0.594c2.387,0.396 4.462,0.99 6.224,1.781c1.763,0.792 3.158,1.818 4.187,3.077c1.028,1.26 1.542,2.753 1.542,4.48c0,1.656 -0.312,3.077 -0.936,4.265c-0.625,1.187 -1.414,2.177 -2.369,2.968c-0.588,-0.359 -1.469,-0.737 -2.644,-1.133c-1.175,-0.396 -2.461,-0.756 -3.856,-1.08c-1.395,-0.324 -2.809,-0.593 -4.242,-0.809c-1.432,-0.216 -2.735,-0.324 -3.911,-0.324c-2.423,-0 -4.296,0.27 -5.618,0.809c-1.322,0.54 -1.983,1.386 -1.983,2.537c-0,0.792 0.367,1.44 1.101,1.944c0.735,0.503 2.13,0.971 4.187,1.403l3.415,0.756c7.051,1.583 12.064,3.76 15.038,6.531c2.975,2.771 4.462,6.352 4.462,10.742Z" style="fill:#ff740e;fill-rule:nonzero;"/></g></g></svg>