<?xml version="1.0" encoding="UTF-8" standalone="no"?><!DOCTYPE svg PUBLIC "-//W3C//DTD SVG 1.1//EN" "http://www.w3.org/Graphics/SVG/1.1/DTD/svg11.dtd"><svg width="100%" height="100%" viewBox="0 0 142 153" version="1.1" xmlns="http://www.w3.org/2000/svg" xmlns:xlink="http://www.w3.org/1999/xlink" xml:space="preserve" xmlns:serif="http://www.serif.com/" style="fill-rule:evenodd;clip-rule:evenodd;stroke-linejoin:round;stroke-miterlimit:2;"><rect id="Artboard1" x="0" y="0" width="141.547" height="152.986" style="fill:none;"/><g><g><path d="M25.45,73.306c0,-0 1.902,11.239 5.56,23.125c0,-0 5.178,16.585 5.721,28.715c0,0 0.471,7.261 -3.056,1.579c0,0 -20.13,-23.971 -22.382,-50.046c-0,0 -0.456,-7.141 0.534,-12.745c0,0 8.15,-3.642 13.623,9.372Z" style="fill:#eea12b;"/><path d="M117.66,93.047c-0,-0 -13.535,26.594 -31.873,39.539c-0,0 -13.019,-4.43 -24.374,-18.022c-0,-0 14.88,7.941 44.272,-13.421c-0,-0 8.486,-7.718 11.975,-8.096Z" style="fill:#ff740e;"/><path d="M6.488,117.424c-0,-0 15.385,15.167 36.303,19.825c-0,-0 4.331,1.497 3.938,-3.13c-0,-0 2.009,-29.74 -4.744,-32.942c-0,-0 -20.738,6.751 -35.497,16.247Z" style="fill:#eea12b;"/><path d="M27,36.934c0,0 18.396,1.086 32.692,5.42c0,0 21.614,10.583 32.933,12.759l17.302,2.554c-0,0 4.881,1.152 1.286,-3.529c0,0 -13.775,-19.102 -29.178,-24.868c-0,-0 -8.844,-3.334 -25.116,-1.685c0,0 -13.88,2.914 -29.919,9.349Z" style="fill:#3eb3a1;"/><path d="M106.105,138.97c-0,-0 15.391,-20.781 -6.084,-59.867c0,-0 -5.275,-6.045 2.358,-6.667c0,0 14.782,-0.257 25.269,3.404c-0,-0 5.489,1.861 3.34,9.991c-5.306,20.078 -12.55,34.699 -24.883,53.139Z" style="fill:#ff740e;"/><path d="M47.522,56.857c-0,-0 -5.246,-16.094 1.216,-33.239c-0,-0 5.362,-15.66 3.617,-20.398c-0,-0 0.989,-4.079 -5.254,1.533c0,-0 -14.133,10.439 -26.219,28.209c-0,0 -6.264,10.666 1.07,15.622c0,0 3.209,4.604 25.57,8.273Z" style="fill:#3eb3a1;"/><ellipse cx="7.3" cy="47.401" rx="5.424" ry="5.315" style="fill:#eea12b;"/><ellipse cx="130.675" cy="58.585" rx="9.772" ry="9.576" style="fill:#3eb3a1;"/><ellipse cx="61.107" cy="143.268" rx="8.685" ry="8.511" style="fill:#ff740e;"/></g></g></svg>