<?xml version="1.0" encoding="UTF-8" standalone="no"?><!DOCTYPE svg PUBLIC "-//W3C//DTD SVG 1.1//EN" "http://www.w3.org/Graphics/SVG/1.1/DTD/svg11.dtd"><svg width="100%" height="100%" viewBox="0 0 409 442" version="1.1" xmlns="http://www.w3.org/2000/svg" xmlns:xlink="http://www.w3.org/1999/xlink" xml:space="preserve" xmlns:serif="http://www.serif.com/" style="fill-rule:evenodd;clip-rule:evenodd;stroke-linejoin:round;stroke-miterlimit:2;"><rect id="Artboard1" x="0" y="0" width="408.248" height="441.759" style="fill:none;"/><g><g><path d="M150.599,225.798c-0,-0 -15.067,7.727 -23.938,14.488c0,-0 -5.773,3.725 0.282,6.761c0,-0 13.377,8.692 36.61,15.178c-0,-0 -12.25,-20.697 -12.954,-36.427Z" style="fill:#e04832;"/><path d="M219.735,257.671c-0,0 -24.36,22.353 -47.03,27.182c0,0 -9.997,-11.59 -14.362,-32.425c0,-0 10.138,16.42 46.748,8.003c0,-0 11.265,-4.14 14.644,-2.76Z" style="fill:#ff740e;"/><path d="M219.453,200.895c0,0 28.584,1.656 51.113,13.936c0,0 5.21,2.208 0.141,4.83c0,-0 -28.725,20.145 -37.736,17.247c-0,0 -10.702,-19.317 -13.518,-36.013Z" style="fill:#eea12b;"/><path d="M220.861,207.309c0,-0 1.831,23.318 -0.985,42.083c-0,0 -9.153,29.114 -9.857,43.74l-0.141,22.215c0,-0 -0.563,6.347 4.506,0.966c0,-0 20.84,-20.835 25.205,-41.256c-0,-0 2.534,-11.729 -2.253,-31.874c-0,0 -5.914,-16.905 -16.475,-35.874Z" style="fill:#3eb3a1;"/><path d="M159.047,220.119c0,-0 16.615,-15.592 59.28,-6.485c-0,-0 7.04,2.897 5.914,-3.036c-0,0 -3.098,-11.314 -9.012,-18.627c0,-0 -3.043,-3.838 -10.42,-0.69c-18.218,7.774 -30.719,16.011 -45.762,28.838Z" style="fill:#ff740e;"/><path d="M159.892,254.89c-0,-0 0.986,-33.254 10.983,-60.022c-0,0 8.73,-24.836 8.871,-34.771c-0,0 1.971,-6.761 -4.365,-0.965c-0,-0 -13.659,8.968 -28.021,32.839c0,-0 -7.885,15.04 -3.942,29.389c-0,0 0.985,10.741 16.474,33.53Z" style="fill:#3eb3a1;"/></g><path d="M71.375,210.659c0,0 5.543,32.757 16.205,67.4c0,-0 15.091,48.338 16.675,83.694c-0,0 1.372,21.164 -8.908,4.603c0,-0 -58.67,-69.866 -65.236,-145.864c0,-0 -1.329,-20.814 1.558,-37.148c-0,0 23.752,-10.615 39.706,27.315Z" style="fill:#eea12b;"/><path d="M340.13,268.196c0,0 -39.449,77.512 -92.897,115.242c-0,0 -37.946,-12.913 -71.041,-52.528c0,-0 43.369,23.145 129.035,-39.117c0,0 24.736,-22.495 34.903,-23.597Z" style="fill:#ff740e;"/><path d="M16.107,339.245c0,0 44.841,44.206 105.809,57.784c-0,-0 12.623,4.364 11.477,-9.124c0,0 5.858,-86.679 -13.826,-96.013c0,0 -60.442,19.677 -103.46,47.353Z" style="fill:#eea12b;"/><path d="M75.892,104.65c0,0 53.618,3.164 95.285,15.797c0,-0 62.995,30.846 95.986,37.186l50.428,7.446c0,-0 14.228,3.357 3.75,-10.286c0,-0 -40.149,-55.677 -85.044,-72.482c0,0 -25.775,-9.716 -73.202,-4.91c0,-0 -40.454,8.492 -87.203,27.249Z" style="fill:#3eb3a1;"/><path d="M306.451,402.044c0,0 44.86,-60.569 -17.73,-174.49c-0,0 -15.375,-17.618 6.872,-19.43c-0,0 43.084,-0.748 73.649,9.92c-0,-0 15.998,5.426 9.736,29.121c-15.467,58.52 -36.578,101.135 -72.527,154.879Z" style="fill:#ff740e;"/><path d="M135.705,162.716c-0,-0 -15.29,-46.906 3.545,-96.879c-0,-0 15.629,-45.643 10.541,-59.452c0,-0 2.883,-11.887 -15.311,4.469c0,-0 -41.192,30.425 -76.421,82.218c0,0 -18.257,31.089 3.121,45.533c0,-0 9.351,13.419 74.525,24.111Z" style="fill:#3eb3a1;"/><ellipse cx="18.473" cy="135.156" rx="15.809" ry="15.491" style="fill:#eea12b;"/><ellipse cx="378.066" cy="167.755" rx="28.482" ry="27.91" style="fill:#3eb3a1;"/><ellipse cx="175.3" cy="414.57" rx="25.313" ry="24.805" style="fill:#ff740e;"/></g></svg>