<?xml version="1.0" encoding="UTF-8" standalone="no"?><!DOCTYPE svg PUBLIC "-//W3C//DTD SVG 1.1//EN" "http://www.w3.org/Graphics/SVG/1.1/DTD/svg11.dtd"><svg width="100%" height="100%" viewBox="0 0 142 153" version="1.1" xmlns="http://www.w3.org/2000/svg" xmlns:xlink="http://www.w3.org/1999/xlink" xml:space="preserve" xmlns:serif="http://www.serif.com/" style="fill-rule:evenodd;clip-rule:evenodd;stroke-linejoin:round;stroke-miterlimit:2;"><rect id="Artboard1" x="0" y="0" width="141.547" height="152.986" style="fill:none;"/><g><g><path d="M108.837,106.149c0,0 16.009,0.027 26.392,-1.816c0,-0 6.466,-0.633 2.69,-5.805c0,-0 -7.481,-13.097 -24.203,-28.605c0,-0 1.338,22.7 -4.879,36.226Z" style="fill:#e04832;"/><path d="M64.52,49.431c0,0 30.152,-8.244 51.298,-2.491c-0,0 3.386,14.07 -1.963,33.473c-0,-0 -1.415,-18.191 -35.831,-26.963c-0,0 -11.261,-1.396 -13.504,-4.019Z" style="fill:#ff740e;"/><path d="M40.181,97.277c-0,0 -23.31,-13.764 -36.932,-33.839c-0,0 -3.424,-4.111 1.972,-4.12c0,-0 32.865,-4.5 39.186,1.837c-0,-0 0.633,20.869 -4.226,36.122Z" style="fill:#eea12b;"/><path d="M41.773,91.277c0,-0 8.555,-20.393 19.045,-34.948c0,0 20.296,-20.51 27.218,-32.5l9.735,-18.612c-0,0 3.221,-5.091 -3.37,-2.762c0,0 -26.535,8.493 -39.044,23.769c0,-0 -7.207,8.761 -11.903,27.766c0,0 -2.347,16.77 -1.681,37.287Z" style="fill:#3eb3a1;"/><path d="M99.277,107.266c0,0 -20.715,5.914 -52.636,-20.209c0,0 -4.663,-5.483 -6.285,-0.008c0,0 -2.293,10.851 -0.488,19.558c0,0 0.897,4.544 8.46,5.091c18.679,1.35 32.753,-0.162 50.949,-4.432Z" style="fill:#ff740e;"/><path d="M113.618,77.673c0,0 -15.222,27.525 -35.213,45.698c0,0 -18.088,17.098 -22.507,25.388c-0,-0 -4.584,4.829 3.251,2.701c-0,-0 15.363,-1.627 37.768,-15.475c0,0 13.138,-9.228 16.036,-22.997c-0,-0 3.82,-9.455 0.665,-35.315Z" style="fill:#3eb3a1;"/></g></g></svg>