<?xml version="1.0" encoding="UTF-8" standalone="no"?><!DOCTYPE svg PUBLIC "-//W3C//DTD SVG 1.1//EN" "http://www.w3.org/Graphics/SVG/1.1/DTD/svg11.dtd"><svg width="100%" height="100%" viewBox="0 0 629 155" version="1.1" xmlns="http://www.w3.org/2000/svg" xmlns:xlink="http://www.w3.org/1999/xlink" xml:space="preserve" xmlns:serif="http://www.serif.com/" style="fill-rule:evenodd;clip-rule:evenodd;stroke-linejoin:round;stroke-miterlimit:2;"><rect id="Artboard1" x="0" y="0" width="628.967" height="154.825" style="fill:none;"/><g><g><path d="M24.901,74.065c0,-0 1.902,11.239 5.56,23.125c0,-0 5.178,16.584 5.721,28.715c0,0 0.471,7.261 -3.056,1.579c0,0 -20.13,-23.971 -22.382,-50.046c-0,0 -0.456,-7.141 0.534,-12.745c0,0 8.15,-3.642 13.623,9.372Z" style="fill:#eea12b;"/><path d="M117.111,93.806c-0,-0 -13.535,26.594 -31.873,39.539c-0,0 -13.019,-4.43 -24.374,-18.022c-0,-0 14.88,7.941 44.272,-13.421c-0,-0 8.486,-7.718 11.975,-8.096Z" style="fill:#ff740e;"/><path d="M5.939,118.183c-0,-0 15.385,15.167 36.303,19.825c-0,-0 4.331,1.497 3.938,-3.13c-0,-0 2.009,-29.74 -4.744,-32.942c-0,-0 -20.738,6.751 -35.497,16.247Z" style="fill:#eea12b;"/><path d="M26.451,37.693c0,0 18.396,1.086 32.692,5.42c0,0 21.614,10.583 32.933,12.759l17.302,2.554c-0,0 4.881,1.152 1.286,-3.529c0,0 -13.775,-19.102 -29.178,-24.868c-0,-0 -8.843,-3.334 -25.116,-1.685c0,0 -13.879,2.914 -29.919,9.349Z" style="fill:#3eb3a1;"/><path d="M105.556,139.729c-0,-0 15.391,-20.781 -6.084,-59.867c0,-0 -5.275,-6.045 2.358,-6.667c0,0 14.782,-0.257 25.269,3.404c-0,-0 5.489,1.861 3.34,9.991c-5.306,20.078 -12.549,34.699 -24.883,53.139Z" style="fill:#ff740e;"/><path d="M46.973,57.616c-0,-0 -5.246,-16.094 1.216,-33.239c0,-0 5.362,-15.66 3.617,-20.398c-0,-0 0.989,-4.079 -5.253,1.533c-0,-0 -14.134,10.439 -26.22,28.209c-0,0 -6.264,10.666 1.07,15.622c0,0 3.209,4.604 25.57,8.273Z" style="fill:#3eb3a1;"/><ellipse cx="6.751" cy="48.16" rx="5.424" ry="5.315" style="fill:#eea12b;"/><ellipse cx="130.126" cy="59.344" rx="9.772" ry="9.576" style="fill:#3eb3a1;"/><ellipse cx="60.558" cy="144.027" rx="8.685" ry="8.511" style="fill:#ff740e;"/></g><g><path d="M169.963,89.389c-2.177,-0.728 -4.156,-1.467 -5.938,-2.219c-1.781,-0.751 -3.315,-1.661 -4.602,-2.727c-1.286,-1.067 -2.288,-2.34 -3.006,-3.819c-0.717,-1.479 -1.076,-3.285 -1.076,-5.419c-0,-4.121 1.621,-7.419 4.862,-9.892c3.241,-2.473 7.781,-3.709 13.62,-3.709c2.128,-0 4.107,0.145 5.938,0.436c1.831,0.291 3.402,0.74 4.713,1.346c1.312,0.606 2.339,1.382 3.081,2.327c0.742,0.946 1.113,2.049 1.113,3.31c0,1.26 -0.297,2.339 -0.89,3.236c-0.594,0.897 -1.312,1.661 -2.153,2.292c-1.089,-0.679 -2.548,-1.273 -4.379,-1.782c-1.831,-0.51 -3.835,-0.764 -6.013,-0.764c-2.226,-0 -3.859,0.303 -4.898,0.909c-1.04,0.606 -1.559,1.37 -1.559,2.291c-0,0.728 0.321,1.322 0.965,1.782c0.643,0.461 1.608,0.885 2.894,1.273l3.934,1.237c4.652,1.454 8.227,3.309 10.726,5.564c2.499,2.255 3.748,5.322 3.748,9.201c0,4.121 -1.657,7.455 -4.973,10.001c-3.315,2.546 -8.189,3.818 -14.622,3.818c-2.276,0 -4.392,-0.181 -6.346,-0.545c-1.955,-0.364 -3.662,-0.897 -5.122,-1.6c-1.46,-0.703 -2.598,-1.576 -3.414,-2.619c-0.817,-1.042 -1.225,-2.242 -1.225,-3.6c-0,-1.406 0.421,-2.606 1.262,-3.6c0.841,-0.995 1.756,-1.758 2.746,-2.292c1.386,1.067 3.08,1.988 5.085,2.764c2.004,0.776 4.193,1.164 6.569,1.164c2.424,0 4.131,-0.364 5.121,-1.091c0.99,-0.727 1.485,-1.576 1.485,-2.546c-0,-0.969 -0.396,-1.709 -1.188,-2.218c-0.792,-0.509 -1.905,-1.006 -3.34,-1.491l-3.118,-1.018Z" style="fill:#3eb3a1;fill-rule:nonzero;"/><path d="M213.46,70.477c2.969,0 5.727,0.376 8.276,1.128c2.548,0.751 4.738,1.903 6.569,3.455c1.831,1.551 3.266,3.503 4.305,5.855c1.039,2.352 1.559,5.152 1.559,8.401c-0,3.103 -0.446,5.819 -1.337,8.146c-0.89,2.328 -2.152,4.279 -3.785,5.855c-1.633,1.576 -3.6,2.752 -5.901,3.528c-2.301,0.776 -4.862,1.164 -7.682,1.164c-2.128,-0 -4.107,-0.315 -5.938,-0.946l-0,12.074c-0.495,0.146 -1.287,0.303 -2.376,0.473c-1.088,0.17 -2.202,0.255 -3.34,0.255c-1.088,-0 -2.066,-0.073 -2.932,-0.219c-0.866,-0.145 -1.596,-0.436 -2.189,-0.872c-0.594,-0.437 -1.039,-1.031 -1.336,-1.782c-0.297,-0.752 -0.446,-1.734 -0.446,-2.946l0,-34.913c0,-1.309 0.285,-2.376 0.854,-3.2c0.569,-0.825 1.348,-1.576 2.338,-2.255c1.534,-0.97 3.439,-1.746 5.715,-2.328c2.277,-0.582 4.825,-0.873 7.646,-0.873Zm0.148,27.785c5.097,0 7.645,-2.982 7.645,-8.946c0,-3.104 -0.631,-5.407 -1.892,-6.91c-1.262,-1.503 -3.081,-2.255 -5.456,-2.255c-0.94,0 -1.781,0.109 -2.524,0.327c-0.742,0.219 -1.385,0.473 -1.93,0.764l0,16.002c0.594,0.291 1.237,0.533 1.93,0.727c0.693,0.194 1.435,0.291 2.227,0.291Z" style="fill:#3eb3a1;fill-rule:nonzero;"/><path d="M252.948,106.845c-0.495,0.145 -1.275,0.291 -2.339,0.436c-1.063,0.146 -2.164,0.219 -3.303,0.219c-1.088,-0 -2.065,-0.073 -2.931,-0.219c-0.866,-0.145 -1.596,-0.436 -2.19,-0.872c-0.594,-0.437 -1.052,-1.031 -1.373,-1.782c-0.322,-0.752 -0.483,-1.734 -0.483,-2.946l0,-21.821c0,-1.115 0.211,-2.073 0.631,-2.873c0.421,-0.8 1.027,-1.515 1.819,-2.145c0.791,-0.631 1.769,-1.201 2.932,-1.71c1.162,-0.509 2.412,-0.957 3.748,-1.345c1.336,-0.388 2.722,-0.691 4.157,-0.91c1.435,-0.218 2.87,-0.327 4.305,-0.327c2.375,0 4.255,0.449 5.641,1.346c1.385,0.897 2.078,2.364 2.078,4.4c0,0.679 -0.099,1.346 -0.297,2c-0.198,0.655 -0.445,1.249 -0.742,1.782c-1.039,0 -2.103,0.049 -3.192,0.146c-1.088,0.097 -2.152,0.242 -3.191,0.436c-1.04,0.194 -2.017,0.4 -2.932,0.619c-0.916,0.218 -1.695,0.472 -2.338,0.763l-0,24.803Z" style="fill:#3eb3a1;fill-rule:nonzero;"/><path d="M270.539,61.749c0,-1.842 0.631,-3.394 1.893,-4.655c1.262,-1.261 2.932,-1.891 5.01,-1.891c2.078,0 3.748,0.63 5.01,1.891c1.262,1.261 1.893,2.813 1.893,4.655c0,1.843 -0.631,3.394 -1.893,4.655c-1.262,1.261 -2.932,1.891 -5.01,1.891c-2.078,0 -3.748,-0.63 -5.01,-1.891c-1.262,-1.261 -1.893,-2.812 -1.893,-4.655Zm13.212,45.096c-0.544,0.097 -1.348,0.23 -2.412,0.4c-1.064,0.17 -2.14,0.255 -3.229,0.255c-1.089,-0 -2.066,-0.073 -2.932,-0.219c-0.866,-0.145 -1.596,-0.436 -2.189,-0.872c-0.594,-0.437 -1.052,-1.031 -1.374,-1.782c-0.321,-0.752 -0.482,-1.734 -0.482,-2.946l-0,-29.603c0.544,-0.097 1.348,-0.231 2.412,-0.4c1.064,-0.17 2.14,-0.255 3.229,-0.255c1.089,-0 2.066,0.073 2.932,0.218c0.866,0.146 1.596,0.437 2.19,0.873c0.593,0.436 1.051,1.03 1.373,1.782c0.321,0.752 0.482,1.734 0.482,2.946l0,29.603Z" style="fill:#3eb3a1;fill-rule:nonzero;"/><path d="M314.629,84.515c0,-1.503 -0.433,-2.606 -1.299,-3.309c-0.866,-0.703 -2.041,-1.055 -3.526,-1.055c-0.989,0 -1.967,0.121 -2.932,0.364c-0.964,0.242 -1.793,0.606 -2.486,1.091l-0,25.239c-0.495,0.145 -1.274,0.291 -2.338,0.436c-1.064,0.146 -2.165,0.219 -3.303,0.219c-1.089,-0 -2.066,-0.073 -2.932,-0.219c-0.866,-0.145 -1.596,-0.436 -2.19,-0.872c-0.594,-0.437 -1.051,-1.031 -1.373,-1.782c-0.322,-0.752 -0.482,-1.734 -0.482,-2.946l-0,-21.821c-0,-1.309 0.284,-2.376 0.853,-3.2c0.569,-0.824 1.349,-1.576 2.338,-2.255c1.683,-1.164 3.798,-2.109 6.347,-2.837c2.548,-0.727 5.381,-1.091 8.498,-1.091c5.592,0 9.897,1.201 12.916,3.601c3.018,2.4 4.527,5.734 4.527,10.001l0,22.766c-0.494,0.145 -1.274,0.291 -2.338,0.436c-1.064,0.146 -2.165,0.219 -3.303,0.219c-1.088,-0 -2.066,-0.073 -2.932,-0.219c-0.866,-0.145 -1.595,-0.436 -2.189,-0.872c-0.594,-0.437 -1.052,-1.031 -1.373,-1.782c-0.322,-0.752 -0.483,-1.734 -0.483,-2.946l0,-17.166Z" style="fill:#3eb3a1;fill-rule:nonzero;"/><path d="M347.659,94.771c0,1.261 0.409,2.158 1.225,2.691c0.817,0.534 1.967,0.8 3.452,0.8c0.742,0 1.509,-0.06 2.301,-0.182c0.791,-0.121 1.484,-0.278 2.078,-0.472c0.445,0.533 0.829,1.127 1.15,1.782c0.322,0.654 0.483,1.442 0.483,2.364c-0,1.842 -0.705,3.345 -2.115,4.509c-1.411,1.164 -3.897,1.746 -7.46,1.746c-4.355,-0 -7.707,-0.97 -10.058,-2.91c-2.35,-1.939 -3.525,-5.091 -3.525,-9.455l-0,-31.131c0.544,-0.145 1.323,-0.303 2.338,-0.473c1.014,-0.169 2.09,-0.254 3.228,-0.254c2.178,-0 3.873,0.376 5.085,1.127c1.212,0.752 1.818,2.34 1.818,4.764l0,4.655l9.724,0c0.297,0.534 0.581,1.2 0.854,2.001c0.272,0.8 0.408,1.685 0.408,2.654c-0,1.698 -0.384,2.922 -1.151,3.674c-0.767,0.751 -1.793,1.127 -3.08,1.127l-6.755,-0l0,10.983Z" style="fill:#3eb3a1;fill-rule:nonzero;"/><path d="M388.632,71.714c-3.81,-0 -6.73,1.139 -8.759,3.418c-2.028,2.279 -3.043,5.504 -3.043,9.674c0,4.219 1.126,7.468 3.377,9.747c2.252,2.279 5.283,3.418 9.093,3.418c2.029,0 3.748,-0.266 5.159,-0.8c1.41,-0.533 2.758,-1.139 4.045,-1.818c0.841,0.679 1.497,1.491 1.967,2.436c0.47,0.946 0.705,2.049 0.705,3.31c0,1.988 -1.126,3.673 -3.377,5.055c-2.252,1.382 -5.678,2.073 -10.28,2.073c-3.316,-0 -6.433,-0.461 -9.353,-1.382c-2.919,-0.921 -5.468,-2.34 -7.645,-4.255c-2.177,-1.915 -3.897,-4.34 -5.159,-7.274c-1.262,-2.933 -1.892,-6.437 -1.892,-10.51c-0,-3.782 0.606,-7.116 1.818,-10.001c1.212,-2.885 2.87,-5.322 4.973,-7.31c2.103,-1.988 4.565,-3.491 7.386,-4.509c2.82,-1.019 5.839,-1.528 9.055,-1.528c4.553,0 8.078,0.728 10.577,2.182c2.499,1.455 3.749,3.322 3.749,5.601c-0,1.261 -0.322,2.352 -0.965,3.273c-0.644,0.921 -1.386,1.649 -2.227,2.182c-1.287,-0.824 -2.66,-1.527 -4.12,-2.109c-1.459,-0.582 -3.154,-0.873 -5.084,-0.873Z" style="fill:#ff740e;fill-rule:nonzero;"/><path d="M422.553,99.062c0.841,0 1.769,-0.085 2.784,-0.254c1.014,-0.17 1.769,-0.4 2.263,-0.691l0,-5.819l-5.344,0.436c-1.385,0.097 -2.523,0.388 -3.414,0.873c-0.891,0.485 -1.336,1.212 -1.336,2.182c-0,0.97 0.383,1.758 1.15,2.364c0.767,0.606 2.066,0.909 3.897,0.909Zm-0.594,-28.585c2.672,0 5.109,0.267 7.312,0.8c2.202,0.534 4.082,1.346 5.641,2.437c1.558,1.091 2.758,2.473 3.6,4.146c0.841,1.673 1.261,3.649 1.261,5.928l0,16.293c0,1.26 -0.358,2.291 -1.076,3.091c-0.717,0.8 -1.571,1.491 -2.561,2.073c-3.216,1.891 -7.744,2.836 -13.583,2.836c-2.623,0 -4.985,-0.242 -7.088,-0.727c-2.104,-0.485 -3.91,-1.212 -5.419,-2.182c-1.509,-0.97 -2.672,-2.206 -3.489,-3.709c-0.816,-1.504 -1.224,-3.249 -1.224,-5.237c-0,-3.346 1.014,-5.916 3.043,-7.71c2.029,-1.794 5.171,-2.91 9.427,-3.346l9.723,-1.018l0,-0.51c0,-1.406 -0.631,-2.412 -1.893,-3.018c-1.261,-0.606 -3.08,-0.909 -5.455,-0.909c-1.881,-0 -3.711,0.194 -5.493,0.582c-1.781,0.388 -3.389,0.872 -4.824,1.454c-0.644,-0.436 -1.188,-1.103 -1.633,-2c-0.446,-0.897 -0.668,-1.83 -0.668,-2.8c-0,-1.261 0.309,-2.267 0.927,-3.019c0.619,-0.751 1.571,-1.394 2.858,-1.927c1.435,-0.534 3.13,-0.921 5.084,-1.164c1.955,-0.242 3.798,-0.364 5.53,-0.364Z" style="fill:#ff740e;fill-rule:nonzero;"/><path d="M464.787,70.477c2.029,0 4.021,0.279 5.976,0.837c1.954,0.557 3.649,1.394 5.084,2.509c1.485,-0.97 3.155,-1.77 5.01,-2.4c1.856,-0.63 4.095,-0.946 6.718,-0.946c1.88,0 3.723,0.243 5.53,0.728c1.806,0.485 3.414,1.248 4.824,2.291c1.41,1.042 2.536,2.424 3.377,4.146c0.842,1.721 1.262,3.818 1.262,6.291l0,22.912c-0.495,0.145 -1.274,0.291 -2.338,0.436c-1.064,0.146 -2.165,0.219 -3.303,0.219c-1.089,-0 -2.066,-0.073 -2.932,-0.219c-0.866,-0.145 -1.596,-0.436 -2.189,-0.872c-0.594,-0.437 -1.052,-1.031 -1.374,-1.782c-0.321,-0.752 -0.482,-1.734 -0.482,-2.946l-0,-17.384c-0,-1.455 -0.421,-2.509 -1.262,-3.164c-0.841,-0.655 -1.979,-0.982 -3.414,-0.982c-0.693,0 -1.435,0.158 -2.227,0.473c-0.792,0.315 -1.386,0.642 -1.781,0.982c0.049,0.194 0.074,0.376 0.074,0.545l-0,24.694c-0.545,0.145 -1.349,0.291 -2.413,0.436c-1.063,0.146 -2.14,0.219 -3.228,0.219c-1.089,-0 -2.066,-0.073 -2.932,-0.219c-0.866,-0.145 -1.596,-0.436 -2.19,-0.872c-0.594,-0.437 -1.051,-1.031 -1.373,-1.782c-0.322,-0.752 -0.483,-1.734 -0.483,-2.946l0,-17.384c0,-1.455 -0.457,-2.509 -1.373,-3.164c-0.915,-0.655 -2.016,-0.982 -3.303,-0.982c-0.891,0 -1.658,0.134 -2.301,0.4c-0.643,0.267 -1.187,0.521 -1.633,0.764l0,25.53c-0.495,0.145 -1.274,0.291 -2.338,0.436c-1.064,0.146 -2.165,0.219 -3.303,0.219c-1.089,-0 -2.066,-0.073 -2.932,-0.219c-0.866,-0.145 -1.596,-0.436 -2.189,-0.872c-0.594,-0.437 -1.052,-1.031 -1.374,-1.782c-0.321,-0.752 -0.482,-1.734 -0.482,-2.946l-0,-21.966c-0,-1.309 0.284,-2.352 0.853,-3.128c0.57,-0.776 1.349,-1.503 2.339,-2.182c1.682,-1.164 3.773,-2.109 6.272,-2.837c2.499,-0.727 5.109,-1.091 7.83,-1.091Z" style="fill:#ff740e;fill-rule:nonzero;"/><path d="M526.84,70.477c2.969,0 5.728,0.376 8.276,1.128c2.549,0.751 4.738,1.903 6.569,3.455c1.831,1.551 3.266,3.503 4.305,5.855c1.039,2.352 1.559,5.152 1.559,8.401c-0,3.103 -0.445,5.819 -1.336,8.146c-0.891,2.328 -2.153,4.279 -3.786,5.855c-1.633,1.576 -3.6,2.752 -5.901,3.528c-2.301,0.776 -4.861,1.164 -7.682,1.164c-2.128,-0 -4.107,-0.315 -5.938,-0.946l0,12.074c-0.495,0.146 -1.286,0.303 -2.375,0.473c-1.089,0.17 -2.202,0.255 -3.34,0.255c-1.089,-0 -2.066,-0.073 -2.932,-0.219c-0.866,-0.145 -1.596,-0.436 -2.19,-0.872c-0.594,-0.437 -1.039,-1.031 -1.336,-1.782c-0.297,-0.752 -0.445,-1.734 -0.445,-2.946l-0,-34.913c-0,-1.309 0.284,-2.376 0.853,-3.2c0.569,-0.825 1.349,-1.576 2.338,-2.255c1.534,-0.97 3.44,-1.746 5.716,-2.328c2.276,-0.582 4.824,-0.873 7.645,-0.873Zm0.148,27.785c5.097,0 7.646,-2.982 7.646,-8.946c-0,-3.104 -0.631,-5.407 -1.893,-6.91c-1.262,-1.503 -3.08,-2.255 -5.456,-2.255c-0.94,0 -1.781,0.109 -2.523,0.327c-0.743,0.219 -1.386,0.473 -1.93,0.764l-0,16.002c0.594,0.291 1.237,0.533 1.93,0.727c0.693,0.194 1.435,0.291 2.226,0.291Z" style="fill:#ff740e;fill-rule:nonzero;"/><path d="M553.71,72.078c0.495,-0.146 1.274,-0.291 2.338,-0.437c1.064,-0.145 2.165,-0.218 3.303,-0.218c1.089,-0 2.066,0.073 2.932,0.218c0.866,0.146 1.596,0.437 2.189,0.873c0.594,0.436 1.052,1.03 1.374,1.782c0.321,0.752 0.482,1.734 0.482,2.946l0,15.638c0,1.988 0.495,3.406 1.485,4.255c0.989,0.848 2.424,1.273 4.305,1.273c1.138,-0 2.066,-0.097 2.783,-0.291c0.718,-0.194 1.274,-0.388 1.67,-0.582l0,-25.457c0.495,-0.146 1.274,-0.291 2.338,-0.437c1.064,-0.145 2.165,-0.218 3.303,-0.218c1.089,-0 2.066,0.073 2.932,0.218c0.866,0.146 1.596,0.437 2.19,0.873c0.594,0.436 1.051,1.03 1.373,1.782c0.322,0.752 0.483,1.734 0.483,2.946l-0,22.111c-0,2.425 -1.04,4.243 -3.118,5.455c-1.732,1.067 -3.798,1.879 -6.198,2.437c-2.4,0.558 -5.01,0.836 -7.831,0.836c-2.672,0 -5.133,-0.29 -7.385,-0.872c-2.252,-0.582 -4.194,-1.479 -5.827,-2.692c-1.633,-1.212 -2.895,-2.776 -3.785,-4.691c-0.891,-1.915 -1.336,-4.231 -1.336,-6.946l-0,-20.802Z" style="fill:#ff740e;fill-rule:nonzero;"/><path d="M627.342,96.371c-0,3.685 -1.411,6.571 -4.231,8.656c-2.821,2.085 -6.978,3.127 -12.47,3.127c-2.079,0 -4.008,-0.145 -5.79,-0.436c-1.781,-0.291 -3.303,-0.74 -4.565,-1.346c-1.262,-0.606 -2.251,-1.37 -2.969,-2.291c-0.717,-0.921 -1.076,-2.012 -1.076,-3.273c-0,-1.164 0.247,-2.146 0.742,-2.946c0.495,-0.8 1.089,-1.467 1.782,-2c1.435,0.776 3.08,1.467 4.936,2.073c1.855,0.606 3.995,0.909 6.42,0.909c1.534,0 2.709,-0.218 3.526,-0.655c0.816,-0.436 1.225,-1.018 1.225,-1.745c-0,-0.679 -0.297,-1.212 -0.891,-1.6c-0.594,-0.388 -1.584,-0.703 -2.969,-0.946l-2.227,-0.436c-4.305,-0.825 -7.509,-2.122 -9.612,-3.892c-2.103,-1.77 -3.155,-4.303 -3.155,-7.6c0,-1.795 0.396,-3.419 1.188,-4.874c0.792,-1.454 1.905,-2.667 3.34,-3.636c1.435,-0.97 3.155,-1.722 5.159,-2.255c2.004,-0.534 4.218,-0.8 6.643,-0.8c1.831,-0 3.55,0.133 5.159,0.4c1.608,0.266 3.006,0.666 4.193,1.2c1.188,0.533 2.128,1.224 2.821,2.073c0.693,0.848 1.039,1.855 1.039,3.018c0,1.116 -0.21,2.073 -0.631,2.873c-0.42,0.8 -0.952,1.467 -1.596,2.001c-0.396,-0.243 -0.989,-0.497 -1.781,-0.764c-0.792,-0.267 -1.658,-0.509 -2.598,-0.728c-0.94,-0.218 -1.893,-0.4 -2.858,-0.545c-0.965,-0.146 -1.843,-0.218 -2.635,-0.218c-1.633,-0 -2.894,0.182 -3.785,0.545c-0.891,0.364 -1.336,0.934 -1.336,1.71c-0,0.533 0.247,0.969 0.742,1.309c0.495,0.339 1.435,0.654 2.821,0.945l2.301,0.509c4.75,1.067 8.127,2.534 10.131,4.401c2.004,1.867 3.007,4.279 3.007,7.237Z" style="fill:#ff740e;fill-rule:nonzero;"/></g></g></svg>