<?xml version="1.0" encoding="UTF-8" standalone="no"?><!DOCTYPE svg PUBLIC "-//W3C//DTD SVG 1.1//EN" "http://www.w3.org/Graphics/SVG/1.1/DTD/svg11.dtd"><svg width="100%" height="100%" viewBox="0 0 629 155" version="1.1" xmlns="http://www.w3.org/2000/svg" xmlns:xlink="http://www.w3.org/1999/xlink" xml:space="preserve" xmlns:serif="http://www.serif.com/" style="fill-rule:evenodd;clip-rule:evenodd;stroke-linejoin:round;stroke-miterlimit:2;"><rect id="Artboard1" x="0" y="0" width="628.967" height="154.825" style="fill:none;"/><g><g><g><path d="M108.837,106.357c0,-0 16.009,0.026 26.392,-1.817c0,0 6.466,-0.632 2.69,-5.805c0,0 -7.481,-13.097 -24.203,-28.605c0,0 1.338,22.7 -4.879,36.227Z" style="fill:#e04832;"/><path d="M64.52,49.638c0,0 30.152,-8.244 51.298,-2.491c-0,0 3.386,14.07 -1.963,33.473c-0,-0 -1.415,-18.19 -35.831,-26.962c-0,-0 -11.261,-1.397 -13.504,-4.02Z" style="fill:#ff740e;"/><path d="M40.181,97.484c-0,0 -23.31,-13.764 -36.932,-33.839c-0,0 -3.424,-4.11 1.972,-4.12c0,0 32.865,-4.499 39.186,1.837c-0,-0 0.633,20.87 -4.226,36.122Z" style="fill:#eea12b;"/><path d="M41.773,91.484c0,0 8.555,-20.393 19.045,-34.948c0,0 20.296,-20.51 27.218,-32.499l9.735,-18.612c-0,-0 3.221,-5.092 -3.37,-2.763c0,0 -26.535,8.493 -39.044,23.769c0,-0 -7.207,8.761 -11.903,27.767c0,-0 -2.347,16.77 -1.681,37.286Z" style="fill:#3eb3a1;"/><path d="M99.277,107.473c0,0 -20.715,5.914 -52.636,-20.208c0,-0 -4.663,-5.484 -6.285,-0.009c0,0 -2.293,10.852 -0.488,19.559c0,-0 0.897,4.543 8.46,5.09c18.679,1.351 32.753,-0.162 50.949,-4.432Z" style="fill:#ff740e;"/><path d="M113.618,77.88c0,0 -15.222,27.525 -35.213,45.698c0,0 -18.088,17.098 -22.507,25.388c-0,-0 -4.584,4.83 3.251,2.701c-0,0 15.363,-1.627 37.768,-15.474c0,-0 13.138,-9.229 16.036,-22.998c-0,0 3.82,-9.455 0.665,-35.315Z" style="fill:#3eb3a1;"/></g><g><path d="M167.314,84.22c-2.177,-0.727 -4.156,-1.467 -5.938,-2.218c-1.781,-0.752 -3.315,-1.661 -4.602,-2.728c-1.286,-1.067 -2.288,-2.34 -3.006,-3.819c-0.717,-1.479 -1.076,-3.285 -1.076,-5.418c-0,-4.122 1.621,-7.419 4.862,-9.892c3.241,-2.473 7.781,-3.71 13.62,-3.71c2.128,0 4.107,0.146 5.938,0.437c1.831,0.29 3.402,0.739 4.714,1.345c1.311,0.606 2.338,1.382 3.08,2.328c0.742,0.945 1.113,2.048 1.113,3.309c0,1.261 -0.297,2.34 -0.89,3.237c-0.594,0.897 -1.312,1.661 -2.153,2.291c-1.089,-0.679 -2.548,-1.273 -4.379,-1.782c-1.831,-0.509 -3.835,-0.764 -6.013,-0.764c-2.226,0 -3.859,0.303 -4.898,0.909c-1.04,0.607 -1.559,1.37 -1.559,2.292c-0,0.727 0.321,1.321 0.965,1.782c0.643,0.46 1.608,0.885 2.895,1.272l3.934,1.237c4.651,1.455 8.226,3.309 10.725,5.564c2.499,2.255 3.749,5.322 3.749,9.201c-0,4.122 -1.658,7.456 -4.974,10.001c-3.315,2.546 -8.189,3.819 -14.622,3.819c-2.276,-0 -4.392,-0.182 -6.346,-0.546c-1.955,-0.363 -3.662,-0.897 -5.122,-1.6c-1.46,-0.703 -2.598,-1.576 -3.414,-2.618c-0.817,-1.043 -1.225,-2.243 -1.225,-3.601c-0,-1.406 0.421,-2.606 1.262,-3.6c0.841,-0.994 1.757,-1.758 2.746,-2.291c1.386,1.067 3.081,1.988 5.085,2.764c2.004,0.776 4.193,1.163 6.569,1.163c2.424,0 4.131,-0.363 5.121,-1.091c0.99,-0.727 1.485,-1.575 1.485,-2.545c-0,-0.97 -0.396,-1.71 -1.188,-2.219c-0.792,-0.509 -1.905,-1.006 -3.34,-1.491l-3.118,-1.018Z" style="fill:#3eb3a1;fill-rule:nonzero;"/><path d="M210.811,65.309c2.969,-0 5.727,0.376 8.276,1.127c2.548,0.752 4.738,1.903 6.569,3.455c1.831,1.552 3.266,3.504 4.305,5.855c1.039,2.352 1.559,5.152 1.559,8.401c-0,3.104 -0.446,5.819 -1.336,8.147c-0.891,2.327 -2.153,4.279 -3.786,5.855c-1.633,1.576 -3.6,2.752 -5.901,3.527c-2.301,0.776 -4.862,1.164 -7.682,1.164c-2.128,0 -4.107,-0.315 -5.938,-0.945l-0,12.074c-0.495,0.145 -1.287,0.303 -2.376,0.472c-1.088,0.17 -2.202,0.255 -3.34,0.255c-1.088,-0 -2.066,-0.073 -2.932,-0.218c-0.866,-0.146 -1.595,-0.437 -2.189,-0.873c-0.594,-0.436 -1.039,-1.03 -1.336,-1.782c-0.297,-0.752 -0.446,-1.734 -0.446,-2.946l0,-34.913c0,-1.309 0.285,-2.376 0.854,-3.2c0.569,-0.824 1.348,-1.576 2.338,-2.255c1.534,-0.97 3.439,-1.745 5.715,-2.327c2.277,-0.582 4.825,-0.873 7.646,-0.873Zm0.148,27.785c5.097,-0 7.645,-2.983 7.645,-8.947c0,-3.103 -0.631,-5.406 -1.892,-6.91c-1.262,-1.503 -3.081,-2.254 -5.456,-2.254c-0.94,-0 -1.781,0.109 -2.524,0.327c-0.742,0.218 -1.385,0.473 -1.93,0.764l0,16.001c0.594,0.291 1.238,0.534 1.93,0.728c0.693,0.194 1.435,0.291 2.227,0.291Z" style="fill:#3eb3a1;fill-rule:nonzero;"/><path d="M250.299,101.676c-0.495,0.146 -1.275,0.291 -2.338,0.437c-1.064,0.145 -2.165,0.218 -3.303,0.218c-1.089,-0 -2.066,-0.073 -2.932,-0.218c-0.866,-0.146 -1.596,-0.437 -2.19,-0.873c-0.594,-0.436 -1.052,-1.03 -1.373,-1.782c-0.322,-0.752 -0.483,-1.734 -0.483,-2.946l0,-21.82c0,-1.116 0.211,-2.073 0.631,-2.873c0.421,-0.8 1.027,-1.516 1.819,-2.146c0.791,-0.63 1.769,-1.2 2.932,-1.709c1.163,-0.51 2.412,-0.958 3.748,-1.346c1.336,-0.388 2.722,-0.691 4.157,-0.909c1.435,-0.218 2.87,-0.327 4.305,-0.327c2.375,-0 4.255,0.448 5.641,1.345c1.385,0.897 2.078,2.364 2.078,4.401c0,0.678 -0.099,1.345 -0.297,2c-0.198,0.654 -0.445,1.248 -0.742,1.782c-1.039,-0 -2.103,0.048 -3.192,0.145c-1.088,0.097 -2.152,0.243 -3.191,0.437c-1.039,0.194 -2.017,0.4 -2.932,0.618c-0.916,0.218 -1.695,0.473 -2.338,0.764l-0,24.802Z" style="fill:#3eb3a1;fill-rule:nonzero;"/><path d="M267.89,56.581c0,-1.843 0.631,-3.395 1.893,-4.655c1.262,-1.261 2.932,-1.892 5.01,-1.892c2.078,0 3.748,0.631 5.01,1.892c1.262,1.26 1.893,2.812 1.893,4.655c0,1.842 -0.631,3.394 -1.893,4.655c-1.262,1.26 -2.932,1.891 -5.01,1.891c-2.078,-0 -3.748,-0.631 -5.01,-1.891c-1.262,-1.261 -1.893,-2.813 -1.893,-4.655Zm13.212,45.095c-0.544,0.097 -1.348,0.231 -2.412,0.4c-1.064,0.17 -2.14,0.255 -3.229,0.255c-1.089,-0 -2.066,-0.073 -2.932,-0.218c-0.866,-0.146 -1.596,-0.437 -2.189,-0.873c-0.594,-0.436 -1.052,-1.03 -1.374,-1.782c-0.321,-0.752 -0.482,-1.734 -0.482,-2.946l-0,-29.603c0.544,-0.097 1.348,-0.23 2.412,-0.4c1.064,-0.17 2.14,-0.255 3.229,-0.255c1.089,0 2.066,0.073 2.932,0.219c0.866,0.145 1.596,0.436 2.19,0.872c0.593,0.437 1.051,1.031 1.373,1.782c0.321,0.752 0.482,1.734 0.482,2.946l0,29.603Z" style="fill:#3eb3a1;fill-rule:nonzero;"/><path d="M311.98,79.347c0,-1.504 -0.433,-2.607 -1.299,-3.31c-0.866,-0.703 -2.041,-1.054 -3.526,-1.054c-0.989,-0 -1.967,0.121 -2.931,0.363c-0.965,0.243 -1.794,0.606 -2.487,1.091l-0,25.239c-0.495,0.146 -1.274,0.291 -2.338,0.437c-1.064,0.145 -2.165,0.218 -3.303,0.218c-1.089,-0 -2.066,-0.073 -2.932,-0.218c-0.866,-0.146 -1.596,-0.437 -2.19,-0.873c-0.594,-0.436 -1.051,-1.03 -1.373,-1.782c-0.322,-0.752 -0.482,-1.734 -0.482,-2.946l-0,-21.82c-0,-1.31 0.284,-2.376 0.853,-3.201c0.569,-0.824 1.349,-1.576 2.338,-2.255c1.683,-1.163 3.798,-2.109 6.347,-2.836c2.548,-0.728 5.381,-1.091 8.498,-1.091c5.592,-0 9.897,1.2 12.916,3.6c3.018,2.4 4.527,5.734 4.527,10.001l0,22.766c-0.494,0.146 -1.274,0.291 -2.338,0.437c-1.064,0.145 -2.165,0.218 -3.303,0.218c-1.088,-0 -2.066,-0.073 -2.932,-0.218c-0.866,-0.146 -1.595,-0.437 -2.189,-0.873c-0.594,-0.436 -1.052,-1.03 -1.373,-1.782c-0.322,-0.752 -0.483,-1.734 -0.483,-2.946l0,-17.165Z" style="fill:#3eb3a1;fill-rule:nonzero;"/><path d="M345.011,89.602c-0,1.261 0.408,2.158 1.224,2.692c0.817,0.533 1.967,0.8 3.452,0.8c0.742,-0 1.509,-0.061 2.301,-0.182c0.791,-0.121 1.484,-0.279 2.078,-0.473c0.445,0.533 0.829,1.127 1.151,1.782c0.321,0.655 0.482,1.443 0.482,2.364c0,1.843 -0.705,3.346 -2.115,4.509c-1.411,1.164 -3.897,1.746 -7.46,1.746c-4.355,0 -7.707,-0.97 -10.058,-2.909c-2.35,-1.94 -3.525,-5.092 -3.525,-9.456l-0,-31.13c0.544,-0.146 1.323,-0.304 2.338,-0.473c1.014,-0.17 2.09,-0.255 3.229,-0.255c2.177,0 3.872,0.376 5.084,1.128c1.212,0.751 1.819,2.339 1.819,4.764l-0,4.655l9.723,-0c0.297,0.533 0.582,1.2 0.854,2c0.272,0.8 0.408,1.685 0.408,2.655c-0,1.697 -0.384,2.921 -1.151,3.673c-0.767,0.752 -1.793,1.127 -3.08,1.127l-6.754,0l-0,10.983Z" style="fill:#3eb3a1;fill-rule:nonzero;"/><path d="M385.983,66.545c-3.81,0 -6.73,1.14 -8.759,3.419c-2.028,2.279 -3.043,5.503 -3.043,9.674c0,4.218 1.126,7.467 3.377,9.746c2.252,2.279 5.283,3.419 9.093,3.419c2.029,-0 3.748,-0.267 5.159,-0.8c1.41,-0.534 2.758,-1.14 4.045,-1.819c0.841,0.679 1.497,1.491 1.967,2.437c0.47,0.945 0.705,2.049 0.705,3.309c0,1.988 -1.126,3.673 -3.377,5.055c-2.252,1.382 -5.678,2.073 -10.28,2.073c-3.316,0 -6.433,-0.46 -9.353,-1.382c-2.919,-0.921 -5.468,-2.339 -7.645,-4.255c-2.177,-1.915 -3.897,-4.34 -5.159,-7.273c-1.262,-2.934 -1.892,-6.437 -1.892,-10.51c-0,-3.783 0.606,-7.116 1.818,-10.001c1.212,-2.886 2.87,-5.322 4.973,-7.31c2.103,-1.988 4.565,-3.492 7.386,-4.51c2.82,-1.018 5.839,-1.527 9.055,-1.527c4.553,-0 8.078,0.727 10.577,2.182c2.499,1.454 3.749,3.321 3.749,5.6c-0,1.261 -0.322,2.352 -0.965,3.273c-0.643,0.922 -1.386,1.649 -2.227,2.182c-1.287,-0.824 -2.66,-1.527 -4.119,-2.109c-1.46,-0.582 -3.155,-0.873 -5.085,-0.873Z" style="fill:#ff740e;fill-rule:nonzero;"/><path d="M419.904,93.894c0.841,-0 1.769,-0.085 2.784,-0.255c1.014,-0.17 1.769,-0.4 2.263,-0.691l0,-5.819l-5.344,0.437c-1.385,0.097 -2.523,0.388 -3.414,0.873c-0.891,0.484 -1.336,1.212 -1.336,2.182c-0,0.969 0.383,1.757 1.15,2.364c0.767,0.606 2.066,0.909 3.897,0.909Zm-0.594,-28.585c2.672,-0 5.11,0.266 7.312,0.8c2.202,0.533 4.082,1.345 5.641,2.437c1.558,1.091 2.758,2.473 3.6,4.145c0.841,1.673 1.261,3.649 1.261,5.928l0,16.293c0,1.261 -0.358,2.291 -1.076,3.091c-0.717,0.8 -1.571,1.491 -2.561,2.073c-3.216,1.891 -7.744,2.837 -13.583,2.837c-2.622,-0 -4.985,-0.243 -7.088,-0.727c-2.103,-0.485 -3.91,-1.213 -5.419,-2.183c-1.509,-0.969 -2.672,-2.206 -3.488,-3.709c-0.817,-1.503 -1.225,-3.249 -1.225,-5.237c-0,-3.346 1.014,-5.916 3.043,-7.71c2.029,-1.794 5.171,-2.909 9.427,-3.346l9.723,-1.018l0,-0.509c0,-1.406 -0.631,-2.413 -1.892,-3.019c-1.262,-0.606 -3.081,-0.909 -5.456,-0.909c-1.88,0 -3.711,0.194 -5.493,0.582c-1.781,0.388 -3.389,0.873 -4.824,1.455c-0.644,-0.437 -1.188,-1.103 -1.633,-2c-0.446,-0.898 -0.668,-1.831 -0.668,-2.801c-0,-1.261 0.309,-2.267 0.927,-3.018c0.619,-0.752 1.572,-1.394 2.858,-1.928c1.435,-0.533 3.13,-0.921 5.085,-1.164c1.954,-0.242 3.797,-0.363 5.529,-0.363Z" style="fill:#ff740e;fill-rule:nonzero;"/><path d="M462.139,65.309c2.028,-0 4.02,0.279 5.975,0.836c1.954,0.558 3.649,1.394 5.084,2.51c1.485,-0.97 3.155,-1.77 5.01,-2.401c1.856,-0.63 4.095,-0.945 6.718,-0.945c1.88,-0 3.723,0.242 5.53,0.727c1.806,0.485 3.414,1.249 4.824,2.291c1.411,1.043 2.536,2.425 3.378,4.146c0.841,1.722 1.261,3.819 1.261,6.292l0,22.911c-0.494,0.146 -1.274,0.291 -2.338,0.437c-1.064,0.145 -2.165,0.218 -3.303,0.218c-1.088,-0 -2.066,-0.073 -2.932,-0.218c-0.866,-0.146 -1.596,-0.437 -2.189,-0.873c-0.594,-0.436 -1.052,-1.03 -1.374,-1.782c-0.321,-0.752 -0.482,-1.734 -0.482,-2.946l-0,-17.384c-0,-1.454 -0.421,-2.509 -1.262,-3.164c-0.841,-0.654 -1.979,-0.981 -3.414,-0.981c-0.693,-0 -1.435,0.157 -2.227,0.472c-0.792,0.316 -1.386,0.643 -1.781,0.982c0.049,0.194 0.074,0.376 0.074,0.546l-0,24.693c-0.545,0.146 -1.349,0.291 -2.413,0.437c-1.063,0.145 -2.14,0.218 -3.228,0.218c-1.089,-0 -2.066,-0.073 -2.932,-0.218c-0.866,-0.146 -1.596,-0.437 -2.19,-0.873c-0.594,-0.436 -1.051,-1.03 -1.373,-1.782c-0.322,-0.752 -0.483,-1.734 -0.483,-2.946l0,-17.384c0,-1.454 -0.457,-2.509 -1.373,-3.164c-0.915,-0.654 -2.016,-0.981 -3.303,-0.981c-0.89,-0 -1.657,0.133 -2.301,0.4c-0.643,0.266 -1.187,0.521 -1.633,0.763l0,25.53c-0.495,0.146 -1.274,0.291 -2.338,0.437c-1.064,0.145 -2.165,0.218 -3.303,0.218c-1.088,-0 -2.066,-0.073 -2.932,-0.218c-0.866,-0.146 -1.596,-0.437 -2.189,-0.873c-0.594,-0.436 -1.052,-1.03 -1.374,-1.782c-0.321,-0.752 -0.482,-1.734 -0.482,-2.946l-0,-21.966c-0,-1.309 0.284,-2.352 0.854,-3.127c0.569,-0.776 1.348,-1.504 2.338,-2.183c1.682,-1.163 3.773,-2.109 6.272,-2.836c2.499,-0.728 5.109,-1.091 7.831,-1.091Z" style="fill:#ff740e;fill-rule:nonzero;"/><path d="M524.191,65.309c2.969,-0 5.728,0.376 8.276,1.127c2.549,0.752 4.738,1.903 6.569,3.455c1.831,1.552 3.266,3.504 4.305,5.855c1.039,2.352 1.559,5.152 1.559,8.401c0,3.104 -0.445,5.819 -1.336,8.147c-0.891,2.327 -2.153,4.279 -3.786,5.855c-1.632,1.576 -3.599,2.752 -5.9,3.527c-2.301,0.776 -4.862,1.164 -7.683,1.164c-2.128,0 -4.107,-0.315 -5.938,-0.945l0,12.074c-0.495,0.145 -1.286,0.303 -2.375,0.472c-1.089,0.17 -2.202,0.255 -3.34,0.255c-1.089,-0 -2.066,-0.073 -2.932,-0.218c-0.866,-0.146 -1.596,-0.437 -2.19,-0.873c-0.594,-0.436 -1.039,-1.03 -1.336,-1.782c-0.297,-0.752 -0.445,-1.734 -0.445,-2.946l-0,-34.913c-0,-1.309 0.284,-2.376 0.853,-3.2c0.569,-0.824 1.349,-1.576 2.339,-2.255c1.533,-0.97 3.439,-1.745 5.715,-2.327c2.276,-0.582 4.825,-0.873 7.645,-0.873Zm0.149,27.785c5.096,-0 7.645,-2.983 7.645,-8.947c-0,-3.103 -0.631,-5.406 -1.893,-6.91c-1.262,-1.503 -3.08,-2.254 -5.456,-2.254c-0.94,-0 -1.781,0.109 -2.523,0.327c-0.742,0.218 -1.386,0.473 -1.93,0.764l-0,16.001c0.594,0.291 1.237,0.534 1.93,0.728c0.693,0.194 1.435,0.291 2.227,0.291Z" style="fill:#ff740e;fill-rule:nonzero;"/><path d="M551.061,66.909c0.495,-0.145 1.274,-0.291 2.338,-0.436c1.064,-0.146 2.165,-0.219 3.303,-0.219c1.089,0 2.066,0.073 2.932,0.219c0.866,0.145 1.596,0.436 2.189,0.872c0.594,0.437 1.052,1.031 1.374,1.782c0.321,0.752 0.482,1.734 0.482,2.946l0,15.638c0,1.988 0.495,3.407 1.485,4.255c0.989,0.849 2.424,1.273 4.305,1.273c1.138,0 2.066,-0.097 2.783,-0.291c0.718,-0.194 1.274,-0.388 1.67,-0.582l0,-25.457c0.495,-0.145 1.274,-0.291 2.338,-0.436c1.064,-0.146 2.165,-0.219 3.303,-0.219c1.089,0 2.066,0.073 2.932,0.219c0.866,0.145 1.596,0.436 2.19,0.872c0.594,0.437 1.052,1.031 1.373,1.782c0.322,0.752 0.483,1.734 0.483,2.946l-0,22.112c-0,2.424 -1.04,4.243 -3.118,5.455c-1.732,1.067 -3.798,1.879 -6.198,2.436c-2.4,0.558 -5.01,0.837 -7.831,0.837c-2.672,-0 -5.133,-0.291 -7.385,-0.873c-2.251,-0.582 -4.194,-1.479 -5.827,-2.691c-1.633,-1.212 -2.894,-2.776 -3.785,-4.692c-0.891,-1.915 -1.336,-4.23 -1.336,-6.946l-0,-20.802Z" style="fill:#ff740e;fill-rule:nonzero;"/><path d="M624.693,91.203c-0,3.685 -1.411,6.57 -4.231,8.655c-2.821,2.085 -6.977,3.128 -12.47,3.128c-2.079,-0 -4.008,-0.146 -5.79,-0.437c-1.781,-0.291 -3.303,-0.739 -4.565,-1.345c-1.261,-0.607 -2.251,-1.37 -2.969,-2.292c-0.717,-0.921 -1.076,-2.012 -1.076,-3.273c0,-1.163 0.247,-2.145 0.742,-2.945c0.495,-0.801 1.089,-1.467 1.782,-2.001c1.435,0.776 3.08,1.467 4.936,2.073c1.855,0.606 3.996,0.909 6.42,0.909c1.534,0 2.709,-0.218 3.526,-0.654c0.816,-0.437 1.225,-1.018 1.225,-1.746c-0,-0.679 -0.297,-1.212 -0.891,-1.6c-0.594,-0.388 -1.584,-0.703 -2.969,-0.945l-2.227,-0.437c-4.305,-0.824 -7.509,-2.121 -9.612,-3.891c-2.103,-1.77 -3.155,-4.304 -3.155,-7.601c0,-1.794 0.396,-3.419 1.188,-4.873c0.792,-1.455 1.905,-2.667 3.34,-3.637c1.435,-0.97 3.155,-1.721 5.159,-2.255c2.004,-0.533 4.218,-0.8 6.643,-0.8c1.831,0 3.55,0.133 5.159,0.4c1.608,0.267 3.006,0.667 4.193,1.2c1.188,0.534 2.128,1.225 2.821,2.073c0.693,0.849 1.039,1.855 1.039,3.019c0,1.115 -0.21,2.073 -0.631,2.873c-0.42,0.8 -0.952,1.467 -1.596,2c-0.395,-0.243 -0.989,-0.497 -1.781,-0.764c-0.792,-0.266 -1.658,-0.509 -2.598,-0.727c-0.94,-0.218 -1.893,-0.4 -2.858,-0.546c-0.965,-0.145 -1.843,-0.218 -2.635,-0.218c-1.633,0 -2.894,0.182 -3.785,0.546c-0.891,0.363 -1.336,0.933 -1.336,1.709c-0,0.533 0.247,0.97 0.742,1.309c0.495,0.34 1.435,0.655 2.821,0.946l2.301,0.509c4.75,1.067 8.127,2.533 10.131,4.4c2.005,1.867 3.007,4.28 3.007,7.238Z" style="fill:#ff740e;fill-rule:nonzero;"/></g></g></g></svg>