<?xml version="1.0" encoding="UTF-8" standalone="no"?><!DOCTYPE svg PUBLIC "-//W3C//DTD SVG 1.1//EN" "http://www.w3.org/Graphics/SVG/1.1/DTD/svg11.dtd"><svg width="100%" height="100%" viewBox="0 0 627 153" version="1.1" xmlns="http://www.w3.org/2000/svg" xmlns:xlink="http://www.w3.org/1999/xlink" xml:space="preserve" xmlns:serif="http://www.serif.com/" style="fill-rule:evenodd;clip-rule:evenodd;stroke-linejoin:round;stroke-miterlimit:2;"><rect id="Artboard1" x="0" y="0" width="626.208" height="152.986" style="fill:none;"/><clipPath id="_clip1"><rect x="0" y="0" width="626.208" height="152.986"/></clipPath><g clip-path="url(#_clip1)"><g><g><path d="M109.757,107.196c-0,-0 16.009,0.027 26.392,-1.817c0,0 6.465,-0.632 2.69,-5.805c0,0 -7.481,-13.097 -24.203,-28.605c-0,0 1.338,22.7 -4.879,36.227Z" style="fill:#e04832;"/><path d="M65.44,50.478c-0,-0 30.151,-8.245 51.298,-2.491c-0,-0 3.386,14.07 -1.964,33.472c0,0 -1.414,-18.19 -35.83,-26.962c-0,-0 -11.261,-1.397 -13.504,-4.019Z" style="fill:#ff740e;"/><path d="M41.1,98.324c0,-0 -23.31,-13.765 -36.931,-33.839c-0,-0 -3.424,-4.111 1.972,-4.121c-0,0 32.865,-4.499 39.185,1.837c0,0 0.634,20.87 -4.226,36.123Z" style="fill:#eea12b;"/><path d="M42.693,92.323c-0,0 8.555,-20.393 19.045,-34.947c-0,-0 20.295,-20.511 27.218,-32.5l9.734,-18.612c0,-0 3.221,-5.092 -3.369,-2.762c0,-0 -26.536,8.492 -39.044,23.768c-0,0 -7.207,8.761 -11.903,27.767c-0,-0 -2.347,16.77 -1.681,37.286Z" style="fill:#fff;"/><path d="M100.197,108.313c0,-0 -20.715,5.914 -52.636,-20.209c0,-0 -4.664,-5.483 -6.285,-0.008c0,-0 -2.294,10.851 -0.488,19.558c0,-0 0.897,4.543 8.46,5.09c18.679,1.351 32.753,-0.161 50.949,-4.431Z" style="fill:#ff740e;"/><path d="M114.538,78.72c-0,-0 -15.223,27.525 -35.213,45.698c0,-0 -18.089,17.097 -22.507,25.387c-0,0 -4.584,4.83 3.251,2.701c-0,0 15.363,-1.626 37.768,-15.474c-0,-0 13.138,-9.229 16.035,-22.998c0,0 3.821,-9.454 0.666,-35.314Z" style="fill:#fff;"/></g><g><path d="M168.234,85.059c-2.177,-0.727 -4.157,-1.467 -5.938,-2.218c-1.781,-0.752 -3.315,-1.661 -4.602,-2.728c-1.287,-1.067 -2.289,-2.339 -3.006,-3.818c-0.718,-1.479 -1.076,-3.286 -1.076,-5.419c-0,-4.122 1.62,-7.419 4.861,-9.892c3.242,-2.473 7.782,-3.71 13.621,-3.71c2.128,0 4.107,0.146 5.938,0.437c1.831,0.291 3.402,0.739 4.713,1.345c1.312,0.607 2.338,1.382 3.081,2.328c0.742,0.946 1.113,2.049 1.113,3.309c-0,1.261 -0.297,2.34 -0.891,3.237c-0.594,0.897 -1.311,1.661 -2.152,2.291c-1.089,-0.679 -2.549,-1.273 -4.38,-1.782c-1.831,-0.509 -3.835,-0.763 -6.012,-0.763c-2.227,-0 -3.86,0.303 -4.899,0.909c-1.039,0.606 -1.559,1.37 -1.559,2.291c0,0.727 0.322,1.321 0.965,1.782c0.644,0.461 1.609,0.885 2.895,1.273l3.934,1.236c4.652,1.455 8.227,3.31 10.726,5.565c2.499,2.254 3.748,5.321 3.748,9.201c0,4.121 -1.658,7.455 -4.973,10.001c-3.315,2.545 -8.19,3.818 -14.622,3.818c-2.277,0 -4.392,-0.182 -6.347,-0.545c-1.954,-0.364 -3.661,-0.897 -5.121,-1.601c-1.46,-0.703 -2.598,-1.575 -3.415,-2.618c-0.816,-1.043 -1.224,-2.243 -1.224,-3.6c-0,-1.407 0.42,-2.607 1.261,-3.601c0.842,-0.994 1.757,-1.758 2.747,-2.291c1.385,1.067 3.08,1.988 5.084,2.764c2.004,0.776 4.194,1.164 6.569,1.164c2.425,-0 4.132,-0.364 5.122,-1.091c0.989,-0.728 1.484,-1.576 1.484,-2.546c0,-0.97 -0.396,-1.709 -1.187,-2.218c-0.792,-0.51 -1.905,-1.007 -3.34,-1.491l-3.118,-1.019Z" style="fill:#fff;fill-rule:nonzero;"/><path d="M211.73,66.148c2.969,0 5.728,0.376 8.276,1.128c2.549,0.751 4.739,1.903 6.569,3.454c1.831,1.552 3.266,3.504 4.306,5.856c1.039,2.351 1.558,5.152 1.558,8.401c0,3.103 -0.445,5.818 -1.336,8.146c-0.891,2.327 -2.152,4.279 -3.785,5.855c-1.633,1.576 -3.6,2.752 -5.901,3.528c-2.301,0.776 -4.862,1.163 -7.683,1.163c-2.127,0 -4.107,-0.315 -5.938,-0.945l0,12.074c-0.494,0.145 -1.286,0.303 -2.375,0.473c-1.089,0.169 -2.202,0.254 -3.34,0.254c-1.089,0 -2.066,-0.072 -2.932,-0.218c-0.866,-0.145 -1.596,-0.436 -2.19,-0.873c-0.593,-0.436 -1.039,-1.03 -1.336,-1.782c-0.297,-0.751 -0.445,-1.733 -0.445,-2.946l-0,-34.912c-0,-1.31 0.285,-2.376 0.854,-3.201c0.569,-0.824 1.348,-1.576 2.338,-2.255c1.534,-0.969 3.439,-1.745 5.715,-2.327c2.276,-0.582 4.825,-0.873 7.645,-0.873Zm0.149,27.785c5.097,-0 7.645,-2.982 7.645,-8.946c-0,-3.104 -0.631,-5.407 -1.893,-6.91c-1.262,-1.504 -3.08,-2.255 -5.455,-2.255c-0.941,-0 -1.782,0.109 -2.524,0.327c-0.742,0.218 -1.386,0.473 -1.93,0.764l0,16.002c0.594,0.291 1.237,0.533 1.93,0.727c0.693,0.194 1.435,0.291 2.227,0.291Z" style="fill:#fff;fill-rule:nonzero;"/><path d="M251.218,102.516c-0.495,0.145 -1.274,0.291 -2.338,0.436c-1.064,0.146 -2.165,0.218 -3.303,0.218c-1.088,0 -2.066,-0.072 -2.932,-0.218c-0.866,-0.145 -1.596,-0.436 -2.189,-0.873c-0.594,-0.436 -1.052,-1.03 -1.374,-1.782c-0.321,-0.751 -0.482,-1.733 -0.482,-2.946l-0,-21.82c-0,-1.115 0.21,-2.073 0.631,-2.873c0.42,-0.8 1.027,-1.515 1.818,-2.146c0.792,-0.63 1.769,-1.2 2.932,-1.709c1.163,-0.509 2.413,-0.958 3.749,-1.346c1.336,-0.388 2.721,-0.691 4.156,-0.909c1.435,-0.218 2.87,-0.327 4.305,-0.327c2.376,-0 4.256,0.448 5.642,1.345c1.385,0.898 2.078,2.364 2.078,4.401c-0,0.679 -0.099,1.346 -0.297,2c-0.198,0.655 -0.445,1.249 -0.742,1.782c-1.039,0 -2.103,0.049 -3.192,0.146c-1.089,0.097 -2.153,0.242 -3.192,0.436c-1.039,0.194 -2.016,0.4 -2.932,0.618c-0.915,0.218 -1.694,0.473 -2.338,0.764l0,24.803Z" style="fill:#fff;fill-rule:nonzero;"/><path d="M268.81,57.42c-0,-1.843 0.631,-3.394 1.893,-4.655c1.261,-1.261 2.931,-1.891 5.01,-1.891c2.078,-0 3.748,0.63 5.01,1.891c1.262,1.261 1.893,2.812 1.893,4.655c-0,1.843 -0.631,3.394 -1.893,4.655c-1.262,1.261 -2.932,1.891 -5.01,1.891c-2.079,0 -3.749,-0.63 -5.01,-1.891c-1.262,-1.261 -1.893,-2.812 -1.893,-4.655Zm13.212,45.096c-0.544,0.097 -1.348,0.23 -2.412,0.4c-1.064,0.169 -2.141,0.254 -3.229,0.254c-1.089,0 -2.066,-0.072 -2.932,-0.218c-0.866,-0.145 -1.596,-0.436 -2.19,-0.873c-0.594,-0.436 -1.051,-1.03 -1.373,-1.782c-0.322,-0.751 -0.482,-1.733 -0.482,-2.946l-0,-29.603c0.544,-0.097 1.348,-0.23 2.412,-0.4c1.064,-0.169 2.14,-0.254 3.229,-0.254c1.088,-0 2.066,0.072 2.932,0.218c0.866,0.145 1.595,0.436 2.189,0.873c0.594,0.436 1.052,1.03 1.373,1.782c0.322,0.751 0.483,1.733 0.483,2.945l-0,29.604Z" style="fill:#fff;fill-rule:nonzero;"/><path d="M312.9,80.186c-0,-1.503 -0.433,-2.606 -1.299,-3.309c-0.866,-0.704 -2.041,-1.055 -3.526,-1.055c-0.99,-0 -1.967,0.121 -2.932,0.364c-0.965,0.242 -1.794,0.606 -2.486,1.091l-0,25.239c-0.495,0.145 -1.275,0.291 -2.338,0.436c-1.064,0.146 -2.165,0.218 -3.303,0.218c-1.089,0 -2.066,-0.072 -2.932,-0.218c-0.866,-0.145 -1.596,-0.436 -2.19,-0.873c-0.594,-0.436 -1.052,-1.03 -1.373,-1.782c-0.322,-0.751 -0.483,-1.733 -0.483,-2.946l0,-21.82c0,-1.309 0.285,-2.376 0.854,-3.2c0.569,-0.825 1.348,-1.576 2.338,-2.255c1.682,-1.164 3.798,-2.11 6.346,-2.837c2.549,-0.727 5.382,-1.091 8.499,-1.091c5.592,0 9.897,1.2 12.915,3.601c3.019,2.4 4.528,5.733 4.528,10.001l0,22.766c-0.495,0.145 -1.274,0.291 -2.338,0.436c-1.064,0.146 -2.165,0.218 -3.303,0.218c-1.089,0 -2.066,-0.072 -2.932,-0.218c-0.866,-0.145 -1.596,-0.436 -2.19,-0.873c-0.593,-0.436 -1.051,-1.03 -1.373,-1.782c-0.321,-0.751 -0.482,-1.733 -0.482,-2.946l-0,-17.165Z" style="fill:#fff;fill-rule:nonzero;"/><path d="M345.93,90.442c0,1.26 0.408,2.157 1.225,2.691c0.816,0.533 1.967,0.8 3.451,0.8c0.743,-0 1.51,-0.061 2.301,-0.182c0.792,-0.121 1.485,-0.279 2.079,-0.473c0.445,0.534 0.829,1.128 1.15,1.782c0.322,0.655 0.483,1.443 0.483,2.364c-0,1.843 -0.705,3.346 -2.116,4.51c-1.41,1.164 -3.897,1.745 -7.459,1.745c-4.355,0 -7.708,-0.969 -10.058,-2.909c-2.35,-1.94 -3.526,-5.091 -3.526,-9.456l0,-31.13c0.545,-0.146 1.324,-0.303 2.338,-0.473c1.015,-0.17 2.091,-0.255 3.229,-0.255c2.177,0 3.872,0.376 5.085,1.128c1.212,0.751 1.818,2.34 1.818,4.764l0,4.655l9.724,0c0.297,0.533 0.581,1.2 0.853,2c0.272,0.8 0.409,1.685 0.409,2.655c-0,1.697 -0.384,2.922 -1.151,3.673c-0.767,0.752 -1.794,1.128 -3.08,1.128l-6.755,-0l0,10.983Z" style="fill:#fff;fill-rule:nonzero;"/><path d="M386.903,67.385c-3.811,-0 -6.73,1.139 -8.759,3.418c-2.029,2.279 -3.043,5.504 -3.043,9.674c-0,4.219 1.126,7.467 3.377,9.746c2.252,2.279 5.282,3.419 9.093,3.419c2.029,-0 3.748,-0.267 5.158,-0.8c1.411,-0.533 2.759,-1.14 4.046,-1.818c0.841,0.678 1.497,1.491 1.967,2.436c0.47,0.946 0.705,2.049 0.705,3.31c-0,1.988 -1.126,3.673 -3.377,5.055c-2.252,1.382 -5.679,2.073 -10.281,2.073c-3.315,-0 -6.433,-0.461 -9.352,-1.382c-2.92,-0.922 -5.468,-2.34 -7.645,-4.255c-2.178,-1.916 -3.897,-4.34 -5.159,-7.274c-1.262,-2.933 -1.893,-6.437 -1.893,-10.51c0,-3.782 0.606,-7.116 1.819,-10.001c1.212,-2.885 2.87,-5.322 4.973,-7.31c2.103,-1.988 4.565,-3.491 7.385,-4.51c2.821,-1.018 5.839,-1.527 9.056,-1.527c4.552,-0 8.078,0.727 10.577,2.182c2.499,1.455 3.748,3.322 3.748,5.601c0,1.26 -0.321,2.351 -0.965,3.273c-0.643,0.921 -1.385,1.648 -2.226,2.182c-1.287,-0.825 -2.66,-1.528 -4.12,-2.11c-1.46,-0.581 -3.154,-0.872 -5.084,-0.872Z" style="fill:#ff740e;fill-rule:nonzero;"/><path d="M420.824,94.733c0.841,0 1.769,-0.085 2.783,-0.255c1.015,-0.169 1.769,-0.4 2.264,-0.691l0,-5.818l-5.344,0.436c-1.386,0.097 -2.524,0.388 -3.414,0.873c-0.891,0.485 -1.337,1.212 -1.337,2.182c0,0.97 0.384,1.758 1.151,2.364c0.767,0.606 2.066,0.909 3.897,0.909Zm-0.594,-28.585c2.672,0 5.109,0.267 7.311,0.8c2.202,0.534 4.083,1.346 5.641,2.437c1.559,1.091 2.759,2.473 3.6,4.146c0.842,1.673 1.262,3.649 1.262,5.928l0,16.292c0,1.261 -0.359,2.291 -1.076,3.092c-0.718,0.8 -1.571,1.491 -2.561,2.073c-3.216,1.891 -7.744,2.836 -13.583,2.836c-2.623,0 -4.986,-0.242 -7.089,-0.727c-2.103,-0.485 -3.909,-1.212 -5.418,-2.182c-1.509,-0.97 -2.672,-2.207 -3.489,-3.71c-0.816,-1.503 -1.225,-3.249 -1.225,-5.237c0,-3.345 1.015,-5.915 3.044,-7.71c2.029,-1.794 5.171,-2.909 9.426,-3.345l9.724,-1.019l-0,-0.509c-0,-1.406 -0.631,-2.412 -1.893,-3.018c-1.262,-0.606 -3.08,-0.91 -5.455,-0.91c-1.881,0 -3.712,0.194 -5.493,0.582c-1.782,0.388 -3.39,0.873 -4.825,1.455c-0.643,-0.436 -1.187,-1.103 -1.633,-2c-0.445,-0.897 -0.668,-1.831 -0.668,-2.8c0,-1.261 0.31,-2.267 0.928,-3.019c0.619,-0.752 1.571,-1.394 2.858,-1.927c1.435,-0.534 3.13,-0.922 5.084,-1.164c1.955,-0.243 3.798,-0.364 5.53,-0.364Z" style="fill:#ff740e;fill-rule:nonzero;"/><path d="M463.058,66.148c2.029,0 4.021,0.279 5.975,0.837c1.955,0.557 3.65,1.394 5.085,2.509c1.484,-0.97 3.154,-1.77 5.01,-2.4c1.856,-0.631 4.095,-0.946 6.717,-0.946c1.881,0 3.724,0.243 5.53,0.727c1.806,0.485 3.415,1.249 4.825,2.292c1.41,1.042 2.536,2.424 3.377,4.146c0.841,1.721 1.262,3.818 1.262,6.291l0,22.912c-0.495,0.145 -1.274,0.291 -2.338,0.436c-1.064,0.146 -2.165,0.218 -3.303,0.218c-1.089,0 -2.066,-0.072 -2.932,-0.218c-0.866,-0.145 -1.596,-0.436 -2.19,-0.873c-0.594,-0.436 -1.051,-1.03 -1.373,-1.782c-0.322,-0.751 -0.482,-1.733 -0.482,-2.946l-0,-17.383c-0,-1.455 -0.421,-2.51 -1.262,-3.164c-0.841,-0.655 -1.98,-0.982 -3.415,-0.982c-0.692,-0 -1.435,0.157 -2.226,0.473c-0.792,0.315 -1.386,0.642 -1.782,0.982c0.05,0.194 0.074,0.375 0.074,0.545l0,24.694c-0.544,0.145 -1.348,0.291 -2.412,0.436c-1.064,0.146 -2.14,0.218 -3.229,0.218c-1.088,0 -2.066,-0.072 -2.932,-0.218c-0.866,-0.145 -1.595,-0.436 -2.189,-0.873c-0.594,-0.436 -1.052,-1.03 -1.373,-1.782c-0.322,-0.751 -0.483,-1.733 -0.483,-2.946l0,-17.383c0,-1.455 -0.458,-2.51 -1.373,-3.164c-0.915,-0.655 -2.017,-0.982 -3.303,-0.982c-0.891,-0 -1.658,0.133 -2.301,0.4c-0.643,0.267 -1.188,0.521 -1.633,0.764l-0,25.53c-0.495,0.145 -1.274,0.291 -2.338,0.436c-1.064,0.146 -2.165,0.218 -3.303,0.218c-1.089,0 -2.066,-0.072 -2.932,-0.218c-0.866,-0.145 -1.596,-0.436 -2.19,-0.873c-0.594,-0.436 -1.051,-1.03 -1.373,-1.782c-0.322,-0.751 -0.482,-1.733 -0.482,-2.946l-0,-21.966c-0,-1.309 0.284,-2.351 0.853,-3.127c0.569,-0.776 1.349,-1.503 2.338,-2.182c1.683,-1.164 3.773,-2.11 6.272,-2.837c2.499,-0.727 5.11,-1.091 7.831,-1.091Z" style="fill:#ff740e;fill-rule:nonzero;"/><path d="M525.111,66.148c2.969,0 5.728,0.376 8.276,1.128c2.548,0.751 4.738,1.903 6.569,3.454c1.831,1.552 3.266,3.504 4.305,5.856c1.039,2.351 1.559,5.152 1.559,8.401c-0,3.103 -0.446,5.818 -1.336,8.146c-0.891,2.327 -2.153,4.279 -3.786,5.855c-1.633,1.576 -3.6,2.752 -5.901,3.528c-2.301,0.776 -4.862,1.163 -7.682,1.163c-2.128,0 -4.107,-0.315 -5.938,-0.945l-0,12.074c-0.495,0.145 -1.287,0.303 -2.375,0.473c-1.089,0.169 -2.202,0.254 -3.341,0.254c-1.088,0 -2.066,-0.072 -2.931,-0.218c-0.866,-0.145 -1.596,-0.436 -2.19,-0.873c-0.594,-0.436 -1.039,-1.03 -1.336,-1.782c-0.297,-0.751 -0.446,-1.733 -0.446,-2.946l0,-34.912c0,-1.31 0.285,-2.376 0.854,-3.201c0.569,-0.824 1.348,-1.576 2.338,-2.255c1.534,-0.969 3.439,-1.745 5.716,-2.327c2.276,-0.582 4.824,-0.873 7.645,-0.873Zm0.148,27.785c5.097,-0 7.645,-2.982 7.645,-8.946c0,-3.104 -0.63,-5.407 -1.892,-6.91c-1.262,-1.504 -3.081,-2.255 -5.456,-2.255c-0.94,-0 -1.781,0.109 -2.524,0.327c-0.742,0.218 -1.385,0.473 -1.929,0.764l-0,16.002c0.593,0.291 1.237,0.533 1.929,0.727c0.693,0.194 1.435,0.291 2.227,0.291Z" style="fill:#ff740e;fill-rule:nonzero;"/><path d="M551.98,67.748c0.495,-0.145 1.275,-0.291 2.339,-0.436c1.063,-0.146 2.164,-0.218 3.303,-0.218c1.088,-0 2.066,0.072 2.931,0.218c0.866,0.145 1.596,0.436 2.19,0.873c0.594,0.436 1.052,1.03 1.373,1.782c0.322,0.751 0.483,1.733 0.483,2.945l-0,15.639c-0,1.988 0.495,3.406 1.484,4.255c0.99,0.848 2.425,1.272 4.305,1.272c1.139,0 2.066,-0.097 2.784,-0.291c0.717,-0.193 1.274,-0.387 1.67,-0.581l-0,-25.458c0.495,-0.145 1.274,-0.291 2.338,-0.436c1.064,-0.146 2.165,-0.218 3.303,-0.218c1.089,-0 2.066,0.072 2.932,0.218c0.866,0.145 1.596,0.436 2.19,0.873c0.593,0.436 1.051,1.03 1.373,1.782c0.321,0.751 0.482,1.733 0.482,2.945l0,22.112c0,2.424 -1.039,4.243 -3.117,5.455c-1.732,1.067 -3.798,1.879 -6.198,2.437c-2.4,0.557 -5.01,0.836 -7.831,0.836c-2.672,0 -5.134,-0.291 -7.385,-0.873c-2.252,-0.582 -4.194,-1.479 -5.827,-2.691c-1.633,-1.212 -2.895,-2.776 -3.786,-4.691c-0.89,-1.916 -1.336,-4.231 -1.336,-6.946l0,-20.803Z" style="fill:#ff740e;fill-rule:nonzero;"/><path d="M625.612,92.042c0,3.685 -1.41,6.57 -4.231,8.655c-2.82,2.085 -6.977,3.128 -12.47,3.128c-2.078,-0 -4.008,-0.146 -5.789,-0.436c-1.782,-0.291 -3.303,-0.74 -4.565,-1.346c-1.262,-0.606 -2.252,-1.37 -2.969,-2.291c-0.718,-0.922 -1.076,-2.013 -1.076,-3.273c-0,-1.164 0.247,-2.146 0.742,-2.946c0.495,-0.8 1.089,-1.467 1.781,-2c1.435,0.776 3.081,1.467 4.936,2.073c1.856,0.606 3.996,0.909 6.421,0.909c1.534,-0 2.709,-0.218 3.526,-0.655c0.816,-0.436 1.224,-1.018 1.224,-1.745c0,-0.679 -0.297,-1.213 -0.89,-1.601c-0.594,-0.388 -1.584,-0.703 -2.969,-0.945l-2.227,-0.437c-4.305,-0.824 -7.509,-2.121 -9.612,-3.891c-2.103,-1.77 -3.155,-4.303 -3.155,-7.601c0,-1.794 0.396,-3.418 1.188,-4.873c0.791,-1.455 1.905,-2.667 3.34,-3.637c1.435,-0.97 3.154,-1.721 5.158,-2.255c2.005,-0.533 4.219,-0.8 6.644,-0.8c1.831,0 3.55,0.134 5.158,0.4c1.609,0.267 3.006,0.667 4.194,1.201c1.188,0.533 2.128,1.224 2.821,2.073c0.692,0.848 1.039,1.854 1.039,3.018c-0,1.115 -0.21,2.073 -0.631,2.873c-0.421,0.8 -0.953,1.467 -1.596,2c-0.396,-0.242 -0.99,-0.497 -1.781,-0.763c-0.792,-0.267 -1.658,-0.51 -2.598,-0.728c-0.94,-0.218 -1.893,-0.4 -2.858,-0.545c-0.965,-0.146 -1.843,-0.219 -2.635,-0.219c-1.633,0 -2.895,0.182 -3.785,0.546c-0.891,0.364 -1.337,0.933 -1.337,1.709c0,0.534 0.248,0.97 0.743,1.31c0.495,0.339 1.435,0.654 2.82,0.945l2.301,0.509c4.751,1.067 8.128,2.534 10.132,4.401c2.004,1.867 3.006,4.279 3.006,7.237Z" style="fill:#ff740e;fill-rule:nonzero;"/></g></g></g></svg>